<svg xmlns="http://www.w3.org/2000/svg" width="64px" height="64px" fill="none" class="w-16 h-16"><mask id="a" width="60" height="60" x="2" y="2" maskUnits="userSpaceOnUse" style="mask-type: alpha;"><path fill="#C4C4C4" d="M2 2h60v60H2z"></path></mask><g mask="url(#a)"><path fill="#212833" fill-rule="evenodd" d="m10.59 5.644.11.29c-.032-.102-.074-.195-.11-.29ZM11.575 3.912a10.757 10.757 0 0 1-.308-1.974c.035.666.139 1.328.309 1.974Z" clip-rule="evenodd"></path><path fill="url(#b)" d="M45.865 28.312c3.85-5.207 2.754-12.547-2.456-16.405-5.21-3.858-12.555-2.755-16.415 2.45-3.859 5.205-2.754 12.546 2.456 16.404a11.713 11.713 0 0 0 9.886 1.925l1.985 2.936 2.719.532-.537 2.743 1.623 2.41 2.72.532 2.189 3.24-.532 2.717 1.644 2.441 5.438 1.064 1.063-5.434-11.783-17.555Zm-10.188-2.293-3.819-5.66 5.67-3.805 3.811 5.659-5.662 3.806Z"></path><path stroke="#fff" d="M34.626 23.524c1.512-1.656 2.218-3.36 2.617-5.604 0 0-.407 1.804-.895 2.872-.603 1.319-1.722 2.732-1.722 2.732Z"></path><path fill="#2B2F36" d="M13.5 56 18 36.5l6 1-1 3-2.5 2L22 45v2l-2.5 2-.5 3.5 1.5 2L20 57l-4 2.5-2.5-3.5Z"></path><circle cx="22.814" cy="27.601" r="10.603" fill="#2B2F36" transform="rotate(-10.913 22.814 27.6)"></circle><path fill="#212833" fill-rule="evenodd" d="M15.557 18.802c-.025-.128-.083-.242-.12-.373.044.135.08.26.12.373Z" clip-rule="evenodd"></path><path fill="#E6E8EA" fill-rule="evenodd" d="M14.903 35.671c-.349-.332-.678-.686-.984-1.058l1.14-.934c.267.326.553.636.857.927l-1.013 1.065ZM12.924 33.185c-.253-.413-.48-.842-.68-1.285l1.358-.585a9.8 9.8 0 0 0 .57 1.125l-1.248.745Z" clip-rule="evenodd"></path><path fill="#E6E8EA" d="m13.233 52.692.29-1.414 1.443.296-.29 1.414zM13.87 49.582l.29-1.414 1.444.296-.29 1.414zM14.505 46.47l.29-1.413 1.443.295-.29 1.414zM15.147 43.364l.29-1.414 1.443.296-.29 1.414zM15.782 40.254l.29-1.414 1.443.297-.29 1.413zM16.423 37.149l.29-1.414 1.443.296-.29 1.414z"></path><path fill="#212833" fill-rule="evenodd" d="m37.462 15.46.006.31c-.009-.105-.004-.208-.006-.31Z" clip-rule="evenodd"></path><path fill="#E6E8EA" d="M16.006 11.18a10.48 10.48 0 0 1 18.277-1.388l1.542-.117c-2.51-4.2-7.458-6.577-12.523-5.6-6.38 1.23-10.608 7.331-9.52 13.737.117.604.277 1.199.481 1.78a11.54 11.54 0 0 0-2.76 9.896l.15.775 1.427-.378-.13-.676c-.554-2.86.16-5.819 1.958-8.11a11.977 11.977 0 0 0 3.891 4.348l.209.116-1.924 2.843 6.735 4.562 4.562-6.74-6.126-4.14-.467.69-.37.539.194.13 4.712 3.19-2.91 4.297-.875-.592-3.421-2.34 1.097-1.622 1.29.873 1.55 1.07.827-1.222-2.506-1.7-1.733-1.178a10.48 10.48 0 0 1-3.637-13.043Z"></path><path fill="#E6E8EA" fill-rule="evenodd" d="m4.418 19.93 1.37.54.127-.296c.147-.341.303-.706.478-1.045l-1.325-.65c-.239.471-.457.957-.65 1.45Zm.448 3.632-1.442-.291c.104-.518.233-1.035.375-1.542l1.417.41c-.158.487-.256.944-.35 1.423Zm-1.828 3.179 1.469.028c.014-.488.045-.98.09-1.463l-1.463-.15c-.056.52-.085 1.054-.096 1.585Zm1.682 3.25-1.456.227c-.1-.514-.143-1.052-.178-1.579l1.466-.109c.041.49.093.978.168 1.462Zm-1.072 2.091c.135.514.287 1.024.462 1.525l1.388-.484c-.16-.455-.3-.932-.421-1.406l-1.43.365Zm1.161 3.291c.224.48.467.96.717 1.416l1.29-.717a18.56 18.56 0 0 1-.667-1.31l-1.34.611Z" clip-rule="evenodd"></path><path fill="#212833" d="m6.542 38.41 1.21-.841.84 1.21-1.21.84z"></path><path fill="#E6E8EA" d="m5.994 16.81.778-1.251 1.25.778-.778 1.25z"></path><path fill="#212833" fill-rule="evenodd" d="M35.903 14.219a10.758 10.758 0 0 0-.447-1.947c.215.632.365 1.284.447 1.947ZM23.445 38.841a11.05 11.05 0 0 0 1.538-.176l-.621 3-1.778 1.17 1.175 1.801-.64 3.219-2.128 1.406-.631 2.947 1.406 2.129-.699 3.41-5.13 3.389-1.796-2.726-.406-.611-.977-1.456-.019-.098-.17-.255.333-1.606 1.448.32-.233.97.847 1.282.432.624.985 1.496 3.395-2.238.45-2.21-1.406-2.129.801-4.12 2.129-1.406.417-2.036-1.605-2.504 2.479-1.678.404-1.914Z" clip-rule="evenodd"></path><path fill="#E6E8EA" d="M29.04 37.085c.076-.039.145-.088.22-.133l1.562-1.297a11.557 11.557 0 0 0-13.828-18.33c.1.504.247.998.44 1.475a9.967 9.967 0 0 1 3.53-1.413 10.09 10.09 0 0 1 7.513 18.24 10.404 10.404 0 0 1-4.224 1.613l-.51.098-.702 3.417-2.478 1.678 1.604 2.504-.417 2.036-2.129 1.406-.801 4.12 1.406 2.129-.45 2.21-3.395 2.238-.985-1.495-.432-.625-.847-1.283.233-.968-1.448-.321-.332 1.606.17.255.018.098.977 1.456.406.611 1.797 2.726 5.13-3.39.698-3.41-1.406-2.128.631-2.947 2.129-1.406.639-3.219-1.131-1.822 1.778-1.17.621-3a11.781 11.781 0 0 0 4.013-1.56Z"></path></g><defs><linearGradient id="b" x1="33.504" x2="52.968" y1="37.993" y2="24.886" gradientUnits="userSpaceOnUse"><stop stop-color="#F0B90B"></stop><stop offset="0.28" stop-color="#F1BC0F"></stop><stop offset="0.569" stop-color="#F4C41C"></stop><stop offset="0.862" stop-color="#F8D230"></stop><stop offset="0.993" stop-color="#FBDA3C"></stop></linearGradient></defs></svg>