<svg xmlns="http://www.w3.org/2000/svg" fill="none" viewBox="0 0 48 48" height="48" width="48">
<path fill="#AEB4BC" d="M27.5 6H20.5V4H27.5V6Z" clip-rule="evenodd" fill-rule="evenodd" opacity="0.3"></path>
<path fill="url(#paint0_linear_8136_93353)" d="M36.5 7.99999L11.5 7.99999L11.5 2L36.5 2V7.99999ZM20.5 6H27.5V4H20.5V6Z" clip-rule="evenodd" fill-rule="evenodd"></path>
<path fill="url(#paint1_linear_8136_93353)" d="M36.5 46H11.5V40L36.5 40V46Z"></path>
<path fill="url(#paint2_linear_8136_93353)" d="M11.5 40H36.5V8L11.5 8L11.5 40ZM24 29.5L29.5 24H25.0101L25.0095 13.5415H22.9892L22.9898 24H18.5L24 29.5ZM29.5 32V34H18.5V32H29.5Z" clip-rule="evenodd" fill-rule="evenodd"></path>
<path fill="#AEB4BC" d="M3 26L5.5 28.5L8 26L5.5 23.5L3 26Z" opacity="0.3"></path>
<path fill="#AEB4BC" d="M39 11.75L40.75 13.5L42.5 11.75L40.75 10L39 11.75Z" opacity="0.3"></path>
<path fill="#AEB4BC" d="M42.5 31H44V29.5H42.5V31Z" opacity="0.3"></path>
<defs>
<linearGradient gradientUnits="userSpaceOnUse" y2="46" x2="24" y1="2" x1="24" id="paint0_linear_8136_93353">
<stop stop-color="#929AA5"></stop>
<stop stop-color="#76808F" offset="1"></stop>
</linearGradient>
<linearGradient gradientUnits="userSpaceOnUse" y2="46" x2="24" y1="2" x1="24" id="paint1_linear_8136_93353">
<stop stop-color="#929AA5"></stop>
<stop stop-color="#76808F" offset="1"></stop>
</linearGradient>
<linearGradient gradientUnits="userSpaceOnUse" y2="8" x2="24" y1="40" x1="24" id="paint2_linear_8136_93353">
<stop stop-color="#F0B90B"></stop>
<stop stop-color="#F8D33A" offset="1"></stop>
</linearGradient>
</defs>
</svg>
