<svg xmlns="http://www.w3.org/2000/svg" viewBox="0 0 96 96" fill="none" class="css-l2q4e3"><path fill-rule="evenodd" clip-rule="evenodd" d="M88 21H8v54h80V21zM14 63h44v6H14v-6zm68 0H71v6h11v-6z" fill="#E6E8EA"></path><path d="M63 81.5l2.5-2.5 2.5 2.5-2.5 2.5-2.5-2.5zM14 13l3-3 3 3-3 3-3-3z" fill="#E6E8EA"></path><path fill="url(#fiat-light_svg__paint0_linear)" d="M8 32h80v11H8z"></path><circle r="15" transform="matrix(1 0 0 -1 50 23)" fill="#F8D33A"></circle><circle r="10.862" transform="matrix(1 0 0 -1 50 23)" fill="url(#fiat-light_svg__paint1_linear)"></circle><path d="M44.31 23L50 28.69 55.69 23 50 17.31 44.31 23z" fill="#F0B90B"></path><circle r="10" transform="matrix(1 0 0 -1 70 56)" fill="#F8D33A"></circle><circle r="7.273" transform="matrix(1 0 0 -1 70 56)" fill="url(#fiat-light_svg__paint2_linear)"></circle><path d="M66.364 56L70 59.636 73.636 56 70 52.363 66.364 56z" fill="#F0B90B"></path><circle r="12" transform="matrix(1 0 0 -1 28 76)" fill="#F8D33A"></circle><circle r="8.727" transform="matrix(1 0 0 -1 28 76)" fill="url(#fiat-light_svg__paint3_linear)"></circle><path d="M23.636 76L28 80.364 32.364 76 28 71.636 23.636 76z" fill="#F0B90B"></path><defs><linearGradient id="fiat-light_svg__paint0_linear" x1="88" y1="32" x2="8" y2="32" gradientUnits="userSpaceOnUse"><stop stop-color="#929AA5"></stop><stop offset="1" stop-color="#76808F"></stop></linearGradient><linearGradient id="fiat-light_svg__paint1_linear" x1="10.862" y1="0" x2="10.862" y2="21.724" gradientUnits="userSpaceOnUse"><stop stop-color="#F0B90B"></stop><stop offset="1" stop-color="#F8D33A"></stop></linearGradient><linearGradient id="fiat-light_svg__paint2_linear" x1="7.273" y1="0" x2="7.273" y2="14.546" gradientUnits="userSpaceOnUse"><stop stop-color="#F0B90B"></stop><stop offset="1" stop-color="#F8D33A"></stop></linearGradient><linearGradient id="fiat-light_svg__paint3_linear" x1="8.727" y1="0" x2="8.727" y2="17.454" gradientUnits="userSpaceOnUse"><stop stop-color="#F0B90B"></stop><stop offset="1" stop-color="#F8D33A"></stop></linearGradient></defs></svg>