<svg xmlns="http://www.w3.org/2000/svg" fill="none" viewBox="0 0 304 96" height="96" width="304">
<g clip-path="url(#clip0_265_9077)">
<g clip-path="url(#clip1_265_9077)">
<g clip-path="url(#clip2_265_9077)">
<g opacity="0.5">
</g>
<path fill="url(#paint0_linear_265_9077)" d="M377.792 39.8552V-9.17515H374.207V-29.0937H377.792H378.986H382.57V-9.17515H378.986V39.8552H377.792ZM356.287 -27.5615V-21.4327H352.703V-1.51413H356.287V9.97735H357.482V-1.51413H361.066V-21.4327H357.482V-27.5615H356.287ZM248.763 13.0417V10.7434H249.958V13.0417H253.542V15.34H249.958V23.7671H248.763V15.34H245.179V13.0417H248.763ZM259.515 18.4044V16.1061H260.71V18.4044H264.294V32.9603H260.71V45.2179H259.515V32.9603H255.931V18.4044H259.515ZM216.506 20.7027V22.2349H212.922V33.7264H216.506V49.8144H217.701V33.7264H221.285V22.2349H217.701V20.7027H216.506ZM12.211 57.2011V50.5805H8.62694V32.1942H12.211V25.2011H13.4057V32.1942H16.9899V50.5805H13.4057V57.2011H12.211ZM-30.7985 61.3059V68.9669H-29.6037V61.3059H-25.9681V49.0484H-29.6037V45.2179H-30.7985V49.0484H-34.3311V61.3059H-30.7985ZM-20.0461 66.6686V93.4821H-18.8514V66.6686H-15.1643V63.6042H-18.8514V59.0076H-20.0461V63.6042H-23.5272V66.6686H-20.0461ZM22.9634 64.4507V76.4488H24.1581V64.4507H27.7423V49.8145H24.1581V46.0703H22.9634V49.8145H19.3793V64.4507H22.9634ZM33.7158 82.6626V70.4991H30.1317V65.1365H33.7158V58.4979H34.9105V65.1365H38.4946V70.4991H34.9105V82.6626H33.7158ZM55.2205 52.8789V56.2006H51.6364V73.8208H55.2205V77.394H56.4152V73.8208H59.9994V56.2006H56.4152V52.8789H55.2205ZM65.9729 67.4347V61.3059H67.1676V67.4347H70.7517V78.9262H67.1676V85.8211H65.9729V78.9262H62.3888V67.4347H65.9729ZM76.7253 75.8618V84.2889H77.92V75.8618H81.5041V73.5635H77.92V55.1771H76.7253V73.5635H73.1412V75.8618H76.7253ZM97.0353 77.394V75.0957H93.4512V74.3296H97.0353V48.2822H98.23V74.3296H101.814V75.0957H98.23V77.394H97.0353ZM107.788 69.733V78.1601H108.982V69.733H112.567V59.7737H108.982V49.0484H107.788V59.7737H104.204V69.733H107.788ZM195.001 78.9262V65.1364H191.417V52.8789H195.001V49.8145H196.196V52.8789H199.78V65.1364H196.196V78.9262H195.001ZM162.744 51.3466V56.7094H163.939V51.3466H167.523V48.2822H163.939V43.6857H162.744V48.2822H159.16V51.3466H162.744ZM270.268 42.9196V45.984H266.684V49.0484H270.268V52.8788H271.463V49.0484H275.047V45.984H271.463V42.9196H270.268ZM173.497 56.7093V52.8789H169.912V50.5806H173.497V47.5161H174.691V50.5806H178.275V52.8789H174.691V56.7093H173.497ZM302.525 33.7264V51.2011H303.72V33.7264H307.304V31.4281H303.72V29.8959H302.525V31.4281H298.941V33.7264H302.525ZM334.782 21.4688V19.9366H335.977V21.4688H339.561V26.8315H335.977V36.7908H334.782V26.8315H331.198V21.4688H334.782ZM388.544 -23.731V-7.64294H384.96V20.7027H388.544V45.2179H389.739V20.7027H393.323V-7.64294H389.739V-23.731H388.544Z" clip-rule="evenodd" fill-rule="evenodd"></path>
<path fill="url(#paint1_linear_265_9077)" d="M345.535 34.4925V26.8315H341.951V-29.8598H345.535V-40.5852H346.729V-29.8598H350.313V26.8315H346.729V34.4925H345.535ZM238.011 1.92315V9.58411H234.427V16.479H238.011V18.0916H239.206V16.479H242.79V9.58411H239.206V1.92315H238.011ZM227.259 30.001V35.6315H228.453V30.001H231.73V7.00098H228.453V3.45534H227.259V7.00098H223.705V30.001H227.259ZM205.754 54.411V50.401H202.64V37.601H205.754V22.2349H206.949V37.601H210.665V50.401H206.949V54.411H205.754ZM-40.3559 45.2178V49.0483H-36.7718V57.4754H-40.3559V61.3059H-41.5507V57.4754H-45.1348V49.0483H-41.5507V45.2178H-40.3559ZM87.4778 66.6686V69.733H88.6725V66.6686H92.2566V52.8789H88.6725V49.8144H87.4778V52.8789H83.8936V66.6686H87.4778ZM1.45882 54.401V42.401H2.65353V54.401H6.0251V66.401H2.65353V70.4991H1.45882V66.401H-1.99997V54.401H1.45882ZM44.4683 49.601V55.9432H40.8842V70.4991H44.4683V90.9479H45.663V70.4991H49.2471V55.9432H45.663V49.601H44.4683ZM119.735 68.9669V66.6686H116.335V61.3059H119.735V49.8144H120.93V61.3059H124.698V66.6686H120.93V68.9669H119.735ZM130.487 60.001V62.9185H131.682V60.001H135.204V49.001H131.682V46.7501H130.487V49.001H127.179V60.001H130.487ZM141.24 63.6846V63.6098H137.655V49.8144H141.24V47.5161H142.434V49.8144H146.018V63.6098H142.434V63.6846H141.24ZM151.992 52.801V54.4915H153.187V52.801H156.495V42.401H153.187V38.323H151.992V42.401H148.47V52.801H151.992ZM184.249 48.2822V46.7501H185.444V48.2822H189.028V59.0076H185.444V62.9185H184.249V59.0076H180.665V48.2822H184.249ZM281.02 48.3627V44.4518H277.436V42.1535H281.02V32.1942H282.215V42.1535H285.799V44.4518H282.215V48.3627H281.02ZM291.773 44.4517V46.0644H292.967V44.4517H296.552V31.4281H292.967V29.8959H291.773V31.4281H288.189V44.4517H291.773ZM313.277 37.6373V33.7264H309.693V28.3637H313.277V21.4688H314.472V28.3637H318.056V33.7264H314.472V37.6373H313.277ZM324.03 33.7263V39.8551H325.225V33.7263H328.809V21.4688H325.225V15.34H324.03V21.4688H320.446V33.7263H324.03ZM367.039 -1.51417V34.4925H368.234V-1.51417H371.818V-29.8598L368.234 -29.8598H367.039L363.455 -29.8598V-1.51417H367.039ZM399.296 26.8315V19.9366H395.712V-17.6022H399.296V-37.5208H400.491V-17.6022H404.075V19.9366H400.491V26.8315H399.296ZM410.049 16.2338V26.8315H411.244V16.2338H414.828V-2.36152H411.244V-37.5208H410.049V-2.36152H406.465V16.2338H410.049ZM-9.29354 72.0313V66.6686H-12.7231V49.0483H-9.29354V-29.8598H-8.09883V49.0483H-4.36013V66.6686H-8.09883V72.0313H-9.29354Z" clip-rule="evenodd" fill-rule="evenodd"></path>
</g>
</g>
</g>
<defs>
<linearGradient gradientUnits="userSpaceOnUse" y2="32.001" x2="-12.0001" y1="32.001" x1="327" id="paint0_linear_265_9077">
<stop stop-opacity="0" stop-color="#E50370"></stop>
<stop stop-color="#E50370" offset="0.479167"></stop>
<stop stop-opacity="0" stop-color="#E50370" offset="1"></stop>
</linearGradient>
<linearGradient gradientUnits="userSpaceOnUse" y2="44.001" x2="-6.5" y1="44.001" x1="319.5" id="paint1_linear_265_9077">
<stop stop-opacity="0" stop-color="#74A700"></stop>
<stop stop-color="#74A700" offset="0.479167"></stop>
<stop stop-opacity="0" stop-color="#74A700" offset="1"></stop>
<stop stop-opacity="0" stop-color="#74A700" offset="1"></stop>
</linearGradient>
<clipPath id="clip0_265_9077">
<rect fill="white" height="96.001" width="304"></rect>
</clipPath>
<clipPath id="clip1_265_9077">
<rect fill="white" rx="4" height="96" width="315" y="0.000976562"></rect>
</clipPath>
<clipPath id="clip2_265_9077">
<rect transform="translate(-45.1348 -80.9667)" fill="white" height="276.168" width="542.696"></rect>
</clipPath>
</defs>
</svg>
