<svg xmlns="http://www.w3.org/2000/svg" viewBox="0 0 98 96" fill="none" class="css-1kyyhz"><path opacity="0.15" fill-rule="evenodd" clip-rule="evenodd" d="M24.0005 20C24.0005 15.5819 27.5821 12 32.0002 12C36.4184 12 40 15.5819 40 20H79.9998V84H24.0005H16.1099C20.4777 83.9415 24.0005 80.3825 24.0005 76.0007V76V48.0007V20ZM64.5254 37.4738L70.1823 43.1307L70.1823 28.9885H56.0401L61.697 34.6454L32.0002 64.3421L34.8287 67.1705L64.5254 37.4738ZM72.0002 74.0007H74V62.0007H70V71.0115H32.0002V75.0115H72.0002V74.0007ZM36.0002 28.9885H32.0002V32.9885H36.0002V28.9885ZM32.0002 36.9885H36.0002V40.9885H32.0002V36.9885ZM36.0002 44.9885H32.0002V48.9885H36.0002V44.9885ZM70 78.0007V82.0007H74V78.0007H70Z" fill="#929AA5"></path><path opacity="0.5" fill-rule="evenodd" clip-rule="evenodd" d="M40 20H88V16C88 13.7909 86.2091 12 84 12H32.0002C36.4184 12 40 15.5819 40 20Z" fill="#929AA5"></path><path opacity="0.5" d="M8.00049 48.0007H24.0005V76.0007C24.0005 80.419 20.4188 84.0007 16.0005 84.0007Lnan nanL16.0005 84.0007C11.5822 84.0007 8.00049 80.419 8.00049 76.0007V48.0007Z" fill="#929AA5"></path><path fill-rule="evenodd" clip-rule="evenodd" d="M72 56.0007C63.1634 56.0007 56 63.1642 56 72.0007C56 80.8373 63.1634 88.0007 72 88.0007C80.8366 88.0007 88 80.8373 88 72.0007C88 63.1642 80.8366 56.0007 72 56.0007ZM70 62.0007V74.0007L74 74.0007V62.0007H70ZM70 78.0007V82.0007H74V78.0007H70Z" fill="#F0B90B"></path></svg>