<svg width="25" height="24" viewBox="0 0 25 24" fill="none" xmlns="http://www.w3.org/2000/svg">
<path d="M24.8333 12C24.8333 18.6274 19.4607 24 12.8333 24C6.20583 24 0.833252 18.6274 0.833252 12C0.833252 5.37258 6.20583 0 12.8333 0C19.4607 0 24.8333 5.37258 24.8333 12Z" fill="#0F3679"/>
<path d="M13.6502 19.685V18.145C15.9077 17.865 17.1852 16.5 17.1852 14.6275C17.1852 12.8075 16.0827 11.8275 13.5452 11.2675V7.67998C14.5427 7.83748 15.2427 8.32748 15.7502 8.99248L17.0452 7.92498C16.2402 6.89248 15.1377 6.26247 13.6502 6.12248V4.59998H12.1627V6.12248C10.0452 6.34998 8.71516 7.48748 8.71516 9.34248C8.71516 11.11 9.78266 12.16 12.2852 12.7025V16.6225C11.1827 16.4825 10.3427 15.9225 9.62516 15.0475L8.34766 16.2025C9.22266 17.2525 10.3952 18.04 12.1627 18.18V19.685H13.6502ZM15.3477 14.75C15.3477 15.7125 14.6827 16.4125 13.5452 16.605V12.965C14.9102 13.315 15.3477 13.875 15.3477 14.75ZM10.5352 9.25498C10.5352 8.37998 11.1827 7.81998 12.2852 7.66248V10.9875C11.0952 10.655 10.5352 10.2175 10.5352 9.25498Z" fill="white"/>
</svg>
