<svg width="21" height="20" viewBox="0 0 21 20" fill="none" xmlns="http://www.w3.org/2000/svg">
<path d="M10.3999 20C15.9227 20 20.3999 15.5228 20.3999 10C20.3999 4.47715 15.9227 0 10.3999 0C4.87705 0 0.399902 4.47715 0.399902 10C0.399902 15.5228 4.87705 20 10.3999 20Z" fill="white"/>
<path d="M14.6644 5H16.4109L12.7773 8.59611C11.4619 9.89788 9.32936 9.89788 8.01403 8.59611L4.38037 5H6.1269L8.88728 7.73189C9.72033 8.55632 11.0709 8.55632 11.904 7.73189L14.6644 5Z" fill="#23292F"/>
<path d="M6.10492 15.0002H4.3584L8.01451 11.3818C9.32984 10.0801 11.4624 10.0801 12.7778 11.3818L16.4339 15.0002H14.6873L11.9045 12.246C11.0714 11.4216 9.72081 11.4216 8.88776 12.246L6.10492 15.0002Z" fill="#23292F"/>
</svg>
