<svg width="25" height="24" viewBox="0 0 25 24" fill="none" xmlns="http://www.w3.org/2000/svg">
<path d="M24.8334 12C24.8334 18.6274 19.4608 24 12.8334 24C6.20596 24 0.833374 18.6274 0.833374 12C0.833374 5.37258 6.20596 0 12.8334 0C19.4608 0 24.8334 5.37258 24.8334 12Z" fill="#F0B90B"/>
<path d="M13.6504 19.6851V18.1451C15.9079 17.8651 17.1854 16.5001 17.1854 14.6276C17.1854 12.8076 16.0829 11.8276 13.5454 11.2676V7.6801C14.5429 7.8376 15.2429 8.3276 15.7504 8.9926L17.0454 7.9251C16.2404 6.8926 15.1379 6.2626 13.6504 6.1226V4.6001H12.1629V6.1226C10.0454 6.3501 8.7154 7.4876 8.7154 9.3426C8.7154 11.1101 9.7829 12.1601 12.2854 12.7026V16.6226C11.1829 16.4826 10.3429 15.9226 9.6254 15.0476L8.3479 16.2026C9.2229 17.2526 10.3954 18.0401 12.1629 18.1801V19.6851H13.6504ZM15.3479 14.7501C15.3479 15.7126 14.6829 16.4126 13.5454 16.6051V12.9651C14.9104 13.3151 15.3479 13.8751 15.3479 14.7501ZM10.5354 9.2551C10.5354 8.3801 11.1829 7.8201 12.2854 7.6626V10.9876C11.0954 10.6551 10.5354 10.2176 10.5354 9.2551Z" fill="#14151A"/>
</svg>
