<svg width="25" height="24" viewBox="0 0 25 24" fill="none" xmlns="http://www.w3.org/2000/svg">
<path d="M24.1665 12C24.1665 18.6274 18.7939 24 12.1665 24C5.53909 24 0.166504 18.6274 0.166504 12C0.166504 5.37258 5.53909 0 12.1665 0C18.7939 0 24.1665 5.37258 24.1665 12Z" fill="#1D53AB"/>
<path d="M10.5431 14.8842H12.6358C14.0857 14.8842 15.0125 14.1069 15.3862 12.6719H16.8212V11.5807H15.5656C15.5805 11.3864 15.5955 11.1621 15.5955 10.9529C15.5955 10.7436 15.5805 10.5343 15.5656 10.34H16.8212V9.2488H15.4161C15.0424 7.78391 14.1156 7.06641 12.6358 7.06641H8.85396V9.2488H7.61328V10.34H8.85396V11.5807H7.61328V12.6719H8.85396V17.5001H10.5431V14.8842ZM10.5431 8.33698H12.5162C13.1889 8.33698 13.6522 8.72563 13.8316 9.30859H10.5431V8.33698ZM10.5431 11.6405V10.2802H13.9213V11.6405H10.5431ZM10.5431 13.6136V12.6121H13.8466C13.6971 13.2249 13.2038 13.6136 12.5162 13.6136H10.5431Z" fill="#F8D33A"/>
</svg>
