<svg width="24" height="24" viewBox="0 0 24 24" fill="none" xmlns="http://www.w3.org/2000/svg">
<path d="M24 12C24 18.6274 18.6274 24 12 24C5.37258 24 0 18.6274 0 12C0 5.37258 5.37258 0 12 0C18.6274 0 24 5.37258 24 12Z" fill="#1D53AB"/>
<path d="M12.4463 18.71C14.6863 18.71 15.9463 17.5375 16.6988 15.945L15.5613 15.1925C15.0538 16.505 13.9863 17.415 12.4463 17.415C10.5913 17.415 9.43626 16.2075 9.13876 14.405H13.6363V13.2325H9.06877V11.5525H13.6363V10.38H9.13876C9.41876 8.57745 10.5738 7.36995 12.4463 7.36995C13.9338 7.36995 14.9838 8.20995 15.4738 9.45245L16.6113 8.75245C15.8413 7.07245 14.4763 6.07495 12.4463 6.07495C9.36627 6.07495 7.54626 8.31495 7.54626 12.3925C7.54626 16.47 9.36627 18.71 12.4463 18.71Z" fill="#F8D33A"/>
</svg>
