<svg width="20" height="20" viewBox="0 0 20 20" fill="none" xmlns="http://www.w3.org/2000/svg">
<circle cx="10" cy="10" r="10" fill="white"/>
<path d="M10 4.0824C7.55298 4.0824 5.55298 6.07063 5.55298 8.52946C5.55298 9.02357 5.63533 9.50593 5.78827 9.97652C5.89415 10.2942 6.2471 10.4706 6.57651 10.3648C6.89416 10.2589 7.07063 9.90593 6.96474 9.57652C6.83533 9.21181 6.77651 8.82357 6.78827 8.43534C6.83533 6.77652 8.17651 5.41181 9.83533 5.32946C11.6824 5.23534 13.2118 6.70593 13.2118 8.52946C13.2118 10.2353 11.8706 11.6353 10.1883 11.7295C10.1883 11.7295 9.56474 11.7648 9.25886 11.8118C9.10592 11.8353 8.98827 11.8589 8.90592 11.8706C8.87063 11.8824 8.83533 11.8471 8.8471 11.8118L8.95298 11.2942L9.52945 8.63534C9.60004 8.30593 9.38827 7.97652 9.05886 7.90593C8.72945 7.83534 8.40004 8.0471 8.32945 8.37652C8.32945 8.37652 6.94121 14.8471 6.92945 14.9177C6.85886 15.2471 7.07063 15.5765 7.40004 15.6471C7.72945 15.7177 8.05886 15.5059 8.12945 15.1765C8.14121 15.1059 8.32945 14.2471 8.32945 14.2471C8.47063 13.5883 9.0118 13.1059 9.6471 13.0236C9.78827 13 10.3412 12.9648 10.3412 12.9648C12.6353 12.7883 14.4471 10.8706 14.4471 8.52946C14.4471 6.07063 12.4471 4.0824 10 4.0824Z" fill="black"/>
<path d="M10.3176 14.3177C9.91757 14.2353 9.51757 14.4824 9.43521 14.8941C9.35286 15.2941 9.59992 15.6941 10.0117 15.7765C10.4117 15.8588 10.8117 15.6118 10.894 15.2C10.9764 14.7882 10.7293 14.4 10.3176 14.3177Z" fill="#E6007A"/>
</svg>
