<svg width="25" height="24" viewBox="0 0 25 24" fill="none" xmlns="http://www.w3.org/2000/svg">
<path d="M24.167 12C24.167 18.6274 18.7944 24 12.167 24C5.53958 24 0.166992 18.6274 0.166992 12C0.166992 5.37258 5.53958 0 12.167 0C18.7944 0 24.167 5.37258 24.167 12Z" fill="#1D53AB"/>
<path d="M15.1859 16.3825V14.895H10.8284V13.32H13.9609C16.1834 13.32 17.4959 12.0075 17.4959 9.80253C17.4959 7.59753 16.1834 6.28503 13.9609 6.28503H8.85094V11.8325H7.39844V13.32H8.85094V14.895H7.39844V16.3825H8.85094V18.5H10.8284V16.3825H15.1859ZM10.8284 7.94753H13.8209C14.8359 7.94753 15.4134 8.47253 15.4134 9.45253V10.3275C15.4134 11.3075 14.8359 11.8325 13.8209 11.8325H10.8284V7.94753Z" fill="white"/>
</svg>
