<svg width="25" height="24" viewBox="0 0 25 24" fill="none" xmlns="http://www.w3.org/2000/svg">
<path d="M24.5 12C24.5 18.6274 19.1274 24 12.5 24C5.87258 24 0.5 18.6274 0.5 12C0.5 5.37258 5.87258 0 12.5 0C19.1274 0 24.5 5.37258 24.5 12Z" fill="#0F3679"/>
<path d="M16.7451 18.25V16.535H10.6026V16.43C11.2676 16.0275 11.9326 15.1 11.9326 13.8225C11.9326 13.595 11.9151 13.4025 11.8801 13.21H14.9951V11.6175H11.3551C11.1626 11.0225 10.9701 10.445 10.9701 9.72745C10.9701 8.29245 11.7751 7.53995 13.1401 7.53995C14.2251 7.53995 14.9776 8.01245 15.5901 8.90495L17.0426 7.87245C16.2026 6.55995 14.9601 5.82495 13.1401 5.82495C10.5501 5.82495 8.95758 7.31245 8.95758 9.46495C8.95758 10.2875 9.18508 10.9525 9.39508 11.6175H8.20508V13.21H9.93758C9.97258 13.4375 10.0076 13.7 10.0076 13.945C10.0076 14.925 9.60508 15.8175 8.66008 16.2375V18.25H16.7451Z" fill="white"/>
</svg>
