<svg class="bn-svg SharePoster__Action-Button__Icon" viewBox="0 0 24 24" xmlns="http://www.w3.org/2000/svg"><path fill-rule="evenodd" clip-rule="evenodd" d="M22 12c0 5.523-4.477 10-10 10S2 17.523 2 12 6.477 2 12 2s10 4.477 10 10zm-9.641-2.618c-.973.405-2.917 1.242-5.832 2.512-.473.189-.721.373-.744.553-.038.304.343.424.862.587l.219.07c.51.166 1.197.36 1.554.368.324.007.685-.127 1.085-.4 2.723-1.84 4.13-2.769 4.218-2.789.062-.014.148-.032.207.02.058.052.052.15.046.177-.037.16-1.534 1.552-2.308 2.271-.241.225-.412.384-.447.42a8.66 8.66 0 01-.235.233c-.475.457-.83.8.02 1.36.408.27.735.492 1.06.714.357.242.712.484 1.171.785.117.077.229.156.338.234.414.296.786.56 1.246.518.267-.024.543-.275.684-1.025.33-1.77.982-5.608 1.133-7.19a1.763 1.763 0 00-.017-.393.421.421 0 00-.142-.27c-.12-.098-.305-.118-.388-.117-.376.007-.953.207-3.73 1.362z" fill="currentColor"></path></svg>