<svg xmlns="http://www.w3.org/2000/svg" viewBox="0 0 96 96" fill="none" class="css-l2q4e3"><circle r="23.5" transform="matrix(1 0 0 -1 61.5 34.5)" fill="url(#spot-light_svg__paint0_linear)"></circle><circle cx="61.5" cy="34.499" r="16.537" fill="#76808F"></circle><path d="M53.04 34.5l8.46-8.46 8.46 8.46-8.46 8.46-8.46-8.46z" fill="#929AA5"></path><circle r="23.5" transform="matrix(1 0 0 -1 34.5 61.5)" fill="#F8D33A"></circle><circle r="16.537" transform="matrix(1 0 0 -1 34.5 61.5)" fill="url(#spot-light_svg__paint1_linear)"></circle><path d="M26.04 61.5l8.46 8.46 8.46-8.46-8.46-8.46-8.46 8.46z" fill="#F0B90B"></path><path d="M31 22.5l2.5-2.5 2.5 2.5-2.5 2.5-2.5-2.5zM61 68l4-4 4 4-4 4-4-4zM6 47l2-2 2 2-2 2-2-2zM36 12H12v24l24-24zM60 84h24V60L60 84z" fill="#E6E8EA"></path><defs><linearGradient id="spot-light_svg__paint0_linear" x1="23.5" y1="0" x2="23.5" y2="47" gradientUnits="userSpaceOnUse"><stop stop-color="#929AA5"></stop><stop offset="1" stop-color="#76808F"></stop></linearGradient><linearGradient id="spot-light_svg__paint1_linear" x1="16.537" y1="0" x2="16.537" y2="33.074" gradientUnits="userSpaceOnUse"><stop stop-color="#F0B90B"></stop><stop offset="1" stop-color="#F8D33A"></stop></linearGradient></defs></svg>