<svg width="352" height="480" viewBox="0 0 352 480" fill="none" xmlns="http://www.w3.org/2000/svg">
<circle opacity="0.1" cx="116.324" cy="191.197" r="106" transform="rotate(-90 116.324 191.197)" fill="url(#paint0_linear_31553_161686)"/>
<path opacity="0.3" d="M96.0317 167.479H110.75V305.25H220.981V317.289H96.0317V167.479Z" fill="#929AA5"/>
<path fill-rule="evenodd" clip-rule="evenodd" d="M110.438 154.862H235.891V305.404H110.438V154.862ZM151.78 179.367H123.983V187.309H151.78V179.367ZM221.271 179.367H173.62V187.309H221.271V179.367ZM173.62 195.251H221.271V203.193H173.62V195.251ZM221.271 258.786H123.983V266.727H221.271V258.786ZM143.84 225.033H131.927V236.946H143.84V225.033Z" fill="url(#paint1_linear_31553_161686)"/>
<path fill-rule="evenodd" clip-rule="evenodd" d="M123.983 246.873H253.038V215.106H123.983V246.873ZM131.927 225.033H143.84V236.946H131.927V225.033ZM245.097 225.033H151.78V236.946H245.097V225.033Z" fill="url(#paint2_linear_31553_161686)"/>
<rect x="251.785" y="193.817" width="7.64425" height="7.64425" transform="rotate(-45 251.785 193.817)" fill="#F8D33A"/>
<rect opacity="0.3" x="260.416" y="127.094" width="11.1586" height="11.1586" fill="#474D57"/>
<rect x="149.969" y="340.037" width="8.43282" height="8.43282" transform="rotate(-45 149.969 340.037)" fill="#F8D33A"/>
<path d="M183.758 154.862C183.758 149.011 179.015 144.268 173.164 144.268C167.313 144.268 162.57 149.011 162.57 154.862H141.383V165.455H204.945V154.862H183.758Z" fill="url(#paint3_linear_31553_161686)"/>
<path d="M256.223 257.715L277.057 278.301L209.345 345.207L202.4 345.207L188.511 331.483V324.621L256.223 257.715Z" fill="url(#paint4_linear_31553_161686)"/>
<path d="M277.057 278.301L281.968 273.449L261.159 252.888L256.248 257.74L277.057 278.301Z" fill="url(#paint5_linear_31553_161686)"/>
<path d="M188.511 345.207V331.483L202.4 345.207H188.511Z" fill="url(#paint6_linear_31553_161686)"/>
<path opacity="0.4" d="M206.847 290.933L201.639 285.787L206.847 280.64L212.056 285.787L206.847 290.933Z" fill="#76808F"/>
<path d="M249.999 331.881L258.253 340.037L266.507 331.881L258.253 323.726L249.999 331.881Z" fill="#F0B90B"/>
<path opacity="0.3" fill-rule="evenodd" clip-rule="evenodd" d="M104.388 102.153H48.1858C38.2172 102.153 30.136 110.234 30.136 120.203C30.136 130.171 38.2171 138.252 48.1858 138.252H104.388C114.357 138.252 122.438 130.171 122.438 120.203C122.438 110.234 114.357 102.153 104.388 102.153ZM42.7267 116.3H50.532V124.105H42.7267V116.3ZM71.0805 116.3H63.2752V124.105H71.0805V116.3ZM83.8237 116.3H91.629V124.105H83.8237V116.3ZM112.178 116.3H104.372V124.105H112.178V116.3Z" fill="#76808F"/>
<defs>
<linearGradient id="paint0_linear_31553_161686" x1="263.521" y1="85.1965" x2="26.5208" y2="215.872" gradientUnits="userSpaceOnUse">
<stop stop-color="#F0B90B"/>
<stop offset="1" stop-color="#F0B90B" stop-opacity="0"/>
</linearGradient>
<linearGradient id="paint1_linear_31553_161686" x1="173.165" y1="154.862" x2="173.165" y2="305.404" gradientUnits="userSpaceOnUse">
<stop stop-color="#76808E" stop-opacity="0.69"/>
<stop offset="1" stop-color="#5E6673" stop-opacity="0.15"/>
</linearGradient>
<linearGradient id="paint2_linear_31553_161686" x1="188.511" y1="215.106" x2="188.511" y2="246.873" gradientUnits="userSpaceOnUse">
<stop stop-color="#929AA5"/>
<stop offset="1" stop-color="#76808F"/>
</linearGradient>
<linearGradient id="paint3_linear_31553_161686" x1="173.164" y1="144.268" x2="173.164" y2="165.455" gradientUnits="userSpaceOnUse">
<stop stop-color="#F0B90B"/>
<stop offset="1" stop-color="#F8D33A"/>
</linearGradient>
<linearGradient id="paint4_linear_31553_161686" x1="232.784" y1="345.207" x2="232.784" y2="257.715" gradientUnits="userSpaceOnUse">
<stop stop-color="#F0B90B"/>
<stop offset="1" stop-color="#F8D33A"/>
</linearGradient>
<linearGradient id="paint5_linear_31553_161686" x1="235.239" y1="252.888" x2="235.239" y2="345.207" gradientUnits="userSpaceOnUse">
<stop stop-color="#929AA5"/>
<stop offset="1" stop-color="#76808F"/>
</linearGradient>
<linearGradient id="paint6_linear_31553_161686" x1="235.239" y1="252.888" x2="235.239" y2="345.207" gradientUnits="userSpaceOnUse">
<stop stop-color="#929AA5"/>
<stop offset="1" stop-color="#76808F"/>
</linearGradient>
</defs>
</svg>
