<svg xmlns="http://www.w3.org/2000/svg" fill="none" viewBox="0 0 352 901" height="901" width="352">
<g clip-path="url(#clip0_1814_64579)">
<rect fill="#1E2329" transform="translate(0 0.845703)" height="900" width="352"></rect>
<path fill="#B7BDC6" d="M148.481 1345.98L39.6987 1234.62C30.5739 1225.28 25.4653 1212.74 25.4653 1199.68L25.4654 965.626C25.4654 942.967 16.4433 921.236 0.383975 905.214L-41.7567 863.136L-152.597 752.431C-157.751 747.284 -160.647 740.298 -160.647 733.014L-160.647 707.548L-160.647 536.506L64.2989 761.158C69.4533 766.306 72.3495 773.291 72.3495 780.576L72.3495 889.713C72.3495 899.627 76.2967 909.134 83.3227 916.144L389.961 1225.38L389.961 1345.98L148.481 1345.98Z" opacity="0.07"></path>
<path fill="#929AA5" d="M98.0957 885.184L103.502 879.778L108.908 885.184L103.502 890.59L98.0957 885.184Z" opacity="0.3"></path>
<path fill="#B7BDC6" d="M204.875 765.18C214.277 774.56 219.56 787.295 219.56 800.575V900.068C219.56 915.608 225.748 930.512 236.762 941.501L265.663 970.359L406.739 1111.34C411.89 1116.49 414.784 1123.47 414.784 1130.75V1144.65V1213.78L195.453 994.649C190.301 989.502 187.406 982.517 187.406 975.235V952.131C187.406 945.332 184.699 938.812 179.88 934.005L-118.194 636.24L-118.194 442.841L204.875 765.18ZM175.87 792.534L184.962 783.442L194.055 792.534L184.962 801.627L175.87 792.534ZM110.734 831.866H103.117V839.483H110.734V831.866Z" clip-rule="evenodd" fill-rule="evenodd" opacity="0.06"></path>
<circle fill="#929AA5" transform="rotate(-90 340.81 771.97)" r="98.2792" cy="771.97" cx="340.81" opacity="0.05"></circle>
</g>
<defs>
<clipPath id="clip0_1814_64579">
<rect transform="translate(0 0.845703)" fill="white" height="900" width="352"></rect>
</clipPath>
</defs>
</svg>
