<svg width="352" height="480" viewBox="0 0 352 480" fill="none" xmlns="http://www.w3.org/2000/svg">
<circle opacity="0.1" cx="116.325" cy="191.197" r="106" transform="rotate(-90 116.325 191.197)" fill="url(#paint0_linear_31553_161644)"/>
<path opacity="0.3" d="M248.205 328.077V334.637H254.765V328.077H248.205Z" fill="#AEB4BC"/>
<path d="M52.25 195L60.125 202.875L68 195L60.125 187.125L52.25 195Z" fill="url(#paint1_linear_31553_161644)"/>
<path fill-rule="evenodd" clip-rule="evenodd" d="M263.644 161.667L291.826 133.513C307.391 117.964 307.391 92.7542 291.826 77.2053C276.262 61.6564 251.026 61.6564 235.462 77.2053C219.897 92.7542 219.897 117.964 235.462 133.513L263.644 161.667ZM290.605 105.399C290.605 120.29 278.534 132.361 263.644 132.361C248.754 132.361 236.683 120.29 236.683 105.399C236.683 90.5091 248.754 78.4381 263.644 78.4381C278.534 78.4381 290.605 90.5091 290.605 105.399Z" fill="url(#paint2_linear_31553_161644)"/>
<path fill-rule="evenodd" clip-rule="evenodd" d="M263.644 132.375C278.521 132.375 290.581 120.315 290.581 105.437C290.581 90.5603 278.521 78.5 263.644 78.5C248.766 78.5 236.706 90.5603 236.706 105.437C236.706 120.315 248.766 132.375 263.644 132.375ZM263.644 120.663C272.052 120.663 278.869 113.846 278.869 105.437C278.869 97.0287 272.052 90.212 263.644 90.212C255.235 90.212 248.418 97.0287 248.418 105.437C248.418 113.846 255.235 120.663 263.644 120.663Z" fill="url(#paint3_linear_31553_161644)"/>
<path opacity="0.4" fill-rule="evenodd" clip-rule="evenodd" d="M234.841 287.798H292.445C302.663 287.798 310.945 296.081 310.945 306.298C310.945 316.515 302.663 324.798 292.445 324.798H234.841C224.624 324.798 216.341 316.515 216.341 306.298C216.341 296.081 224.624 287.798 234.841 287.798ZM229.246 302.298H237.246V310.298H229.246V302.298ZM250.307 302.298H258.307V310.298H250.307V302.298ZM279.368 302.298H271.368V310.298H279.368V302.298ZM292.429 302.298H300.429V310.298H292.429V302.298Z" fill="#76808F"/>
<ellipse cx="176" cy="240" rx="97.5" ry="97.9167" fill="url(#paint4_linear_31553_161644)"/>
<path opacity="0.3" d="M71.1875 176.354L78.5 183.698L85.8125 176.354L78.5 169.01L71.1875 176.354Z" fill="#AEB4BC"/>
<path opacity="0.3" d="M293 149.427H300.312V142.083H293V149.427Z" fill="#AEB4BC"/>
<path d="M98 240C98 283.262 132.922 318.333 176 318.333C219.078 318.333 254 283.262 254 240C254 196.738 219.078 161.667 176 161.667C132.922 161.667 98 196.738 98 240Z" fill="url(#paint5_linear_31553_161644)"/>
<path d="M248.403 269.194C252.013 260.172 254 250.319 254 240C254 236.004 253.702 232.079 253.127 228.244L245.333 220.417H232.333L221.5 231.296V244.352L228 250.879H241V261.759L248.403 269.194Z" fill="url(#paint6_linear_31553_161644)"/>
<path d="M121.104 295.648L132.667 285.694V276.991H126.167V270.463L119.667 263.935V274.815L113.167 268.287V259.583H106.667L101.861 264.409C105.754 276.342 112.424 287.012 121.104 295.648Z" fill="url(#paint7_linear_31553_161644)"/>
<path d="M240.865 196.481C243.16 199.925 245.191 203.561 246.927 207.361H238.833V213.889H230.167V207.361L236.667 200.833L232.333 196.481H240.865Z" fill="url(#paint8_linear_31553_161644)"/>
<path d="M229.95 183.426C231.532 184.948 233.05 186.536 234.5 188.186V189.954H219.333L225.833 183.426H229.95Z" fill="url(#paint9_linear_31553_161644)"/>
<path d="M198.923 165.104C207.226 167.664 214.939 171.578 221.806 176.59L208.5 189.954V174.722L198.923 165.104Z" fill="url(#paint10_linear_31553_161644)"/>
<path d="M114.255 192.129C117.29 188.187 120.691 184.544 124.406 181.25H145.667V172.546H156.5L165.167 181.25H176V174.722H182.5L186.833 179.074L180.333 185.602H197.667V192.129L191.167 198.657H180.333L167.333 213.889V224.768L160.833 218.241H152.167V231.296H160.833V248.704L150 237.824H141.333V224.768L134.833 218.241H126.167V203.009L137 192.129H114.255Z" fill="url(#paint11_linear_31553_161644)"/>
<path d="M104.5 208.644C105.009 207.476 105.545 206.323 106.108 205.185H113.167V213.889L104.5 222.592V208.644Z" fill="url(#paint12_linear_31553_161644)"/>
<path d="M98 240H106.667V231.296H98.4761C98.1615 234.154 98 237.058 98 240Z" fill="url(#paint13_linear_31553_161644)"/>
<path d="M169.5 240L160.833 248.704V257.407L176 272.639V298.75L189 311.805V298.75L199.833 287.87V279.167L208.5 270.463V257.407H197.667V248.704H189L180.333 240H169.5Z" fill="url(#paint14_linear_31553_161644)"/>
<path d="M169.5 231.296L176 224.768H182.5V231.296H169.5Z" fill="url(#paint15_linear_31553_161644)"/>
<path d="M143.5 287.87L132.667 298.75H143.5V287.87Z" fill="url(#paint16_linear_31553_161644)"/>
<path d="M113.167 246.528L126.167 259.583V246.528H113.167Z" fill="url(#paint17_linear_31553_161644)"/>
<path d="M197.667 181.25L186.833 170.37H197.667V181.25Z" fill="url(#paint18_linear_31553_161644)"/>
<path d="M169.5 174.722V166.018H160.833L169.5 174.722Z" fill="url(#paint19_linear_31553_161644)"/>
<path d="M176 181.25H165.167L156.5 172.546H145.667V181.25H124.406C120.691 184.544 117.29 188.187 114.255 192.13H137L126.167 203.009V218.241H134.833L141.333 224.768V237.824H150L160.833 248.704V257.407L176 272.639V240H169.5L160.833 248.704V231.296H152.167V218.241H160.833L167.333 224.768V213.889L176 203.734V181.25Z" fill="#F8D33A"/>
<path d="M176 224.768L169.5 231.296H176V224.768Z" fill="#F8D33A"/>
<path d="M132.667 285.694L121.104 295.648C112.424 287.012 105.754 276.342 101.861 264.409L106.667 259.583H113.167V268.287L119.667 274.815V263.935L126.167 270.463V276.991H132.667V285.694Z" fill="#F8D33A"/>
<path d="M104.5 208.644C105.009 207.476 105.545 206.323 106.108 205.185H113.167V213.889L104.5 222.593V208.644Z" fill="#F8D33A"/>
<path d="M106.667 240H98C98 237.058 98.1615 234.154 98.4761 231.296H106.667V240Z" fill="#F8D33A"/>
<path d="M143.5 287.87L132.667 298.75H143.5V287.87Z" fill="#F8D33A"/>
<path d="M126.167 259.583L113.167 246.528H126.167V259.583Z" fill="#F8D33A"/>
<path d="M169.5 166.018V174.722L160.833 166.018H169.5Z" fill="#F8D33A"/>
<path opacity="0.3" d="M130.939 397.702L124.878 403.763L130.939 409.824L137 403.763L130.939 397.702Z" fill="#AEB4BC"/>
<path fill-rule="evenodd" clip-rule="evenodd" d="M119.213 353.643C130.082 364.5 130.082 382.104 119.213 392.961L99.5343 412.62L79.8554 392.961C68.987 382.104 68.987 364.5 79.8554 353.643C90.7238 342.786 108.345 342.786 119.213 353.643ZM99.5343 384.546C93.7705 384.546 88.2795 379.06 88.2795 373.302C88.2795 367.544 93.7705 362.058 99.5343 362.058C105.298 362.058 110.789 367.544 110.789 373.302C110.789 379.06 105.298 384.546 99.5343 384.546Z" fill="url(#paint20_linear_31553_161644)"/>
<path fill-rule="evenodd" clip-rule="evenodd" d="M99.5347 392.899C110.395 392.899 119.199 384.096 119.199 373.235C119.199 362.375 110.395 353.571 99.5347 353.571C88.6745 353.571 79.8706 362.375 79.8706 373.235C79.8706 384.096 88.6745 392.899 99.5347 392.899ZM99.5347 384.35C105.673 384.35 110.649 379.374 110.649 373.235C110.649 367.097 105.673 362.121 99.5347 362.121C93.3963 362.121 88.4202 367.097 88.4202 373.235C88.4202 379.374 93.3963 384.35 99.5347 384.35Z" fill="url(#paint21_linear_31553_161644)"/>
<path opacity="0.3" fill-rule="evenodd" clip-rule="evenodd" d="M106.601 104.45H50.3989C40.4303 104.45 32.3491 112.531 32.3491 122.5C32.3491 132.469 40.4303 140.55 50.3989 140.55H106.601C116.57 140.55 124.651 132.469 124.651 122.5C124.651 112.531 116.57 104.45 106.601 104.45ZM44.9399 118.597H52.7452V126.403H44.9399V118.597ZM73.2937 118.597H65.4884V126.403H73.2937V118.597ZM86.0369 118.597H93.8422V126.403H86.0369V118.597ZM114.391 118.597H106.585V126.403H114.391V118.597Z" fill="#76808F"/>
<defs>
<linearGradient id="paint0_linear_31553_161644" x1="263.521" y1="85.1965" x2="26.5213" y2="215.872" gradientUnits="userSpaceOnUse">
<stop stop-color="#F0B90B"/>
<stop offset="1" stop-color="#F0B90B" stop-opacity="0"/>
</linearGradient>
<linearGradient id="paint1_linear_31553_161644" x1="60.125" y1="202.875" x2="60.125" y2="187.125" gradientUnits="userSpaceOnUse">
<stop stop-color="#F0B90B"/>
<stop offset="1" stop-color="#F8D33A"/>
</linearGradient>
<linearGradient id="paint2_linear_31553_161644" x1="263.644" y1="65.5436" x2="263.644" y2="161.667" gradientUnits="userSpaceOnUse">
<stop stop-color="#F0B90B"/>
<stop offset="1" stop-color="#F8D33A"/>
</linearGradient>
<linearGradient id="paint3_linear_31553_161644" x1="263.644" y1="78.5" x2="263.644" y2="132.375" gradientUnits="userSpaceOnUse">
<stop stop-color="#929AA5"/>
<stop offset="1" stop-color="#76808F"/>
</linearGradient>
<linearGradient id="paint4_linear_31553_161644" x1="-76.5" y1="121.532" x2="114.055" y2="451.272" gradientUnits="userSpaceOnUse">
<stop stop-color="#F9F9F9" stop-opacity="0.15"/>
<stop offset="1" stop-color="#0B0E11" stop-opacity="0"/>
</linearGradient>
<linearGradient id="paint5_linear_31553_161644" x1="176" y1="161.667" x2="176" y2="318.333" gradientUnits="userSpaceOnUse">
<stop stop-color="#616B79" stop-opacity="0.69"/>
<stop offset="1" stop-color="#9DA0A4" stop-opacity="0.01"/>
</linearGradient>
<linearGradient id="paint6_linear_31553_161644" x1="176" y1="311.805" x2="176" y2="165.104" gradientUnits="userSpaceOnUse">
<stop stop-color="#FFD43E"/>
<stop offset="1" stop-color="#FFE887"/>
</linearGradient>
<linearGradient id="paint7_linear_31553_161644" x1="176" y1="311.805" x2="176" y2="165.104" gradientUnits="userSpaceOnUse">
<stop stop-color="#FFD43E"/>
<stop offset="1" stop-color="#FFE887"/>
</linearGradient>
<linearGradient id="paint8_linear_31553_161644" x1="176" y1="311.805" x2="176" y2="165.104" gradientUnits="userSpaceOnUse">
<stop stop-color="#FFD43E"/>
<stop offset="1" stop-color="#FFE887"/>
</linearGradient>
<linearGradient id="paint9_linear_31553_161644" x1="176" y1="311.805" x2="176" y2="165.104" gradientUnits="userSpaceOnUse">
<stop stop-color="#FFD43E"/>
<stop offset="1" stop-color="#FFE887"/>
</linearGradient>
<linearGradient id="paint10_linear_31553_161644" x1="176" y1="311.805" x2="176" y2="165.104" gradientUnits="userSpaceOnUse">
<stop stop-color="#FFD43E"/>
<stop offset="1" stop-color="#FFE887"/>
</linearGradient>
<linearGradient id="paint11_linear_31553_161644" x1="176" y1="311.805" x2="176" y2="165.104" gradientUnits="userSpaceOnUse">
<stop stop-color="#FFD43E"/>
<stop offset="1" stop-color="#FFE887"/>
</linearGradient>
<linearGradient id="paint12_linear_31553_161644" x1="176" y1="311.805" x2="176" y2="165.104" gradientUnits="userSpaceOnUse">
<stop stop-color="#FFD43E"/>
<stop offset="1" stop-color="#FFE887"/>
</linearGradient>
<linearGradient id="paint13_linear_31553_161644" x1="176" y1="311.805" x2="176" y2="165.104" gradientUnits="userSpaceOnUse">
<stop stop-color="#FFD43E"/>
<stop offset="1" stop-color="#FFE887"/>
</linearGradient>
<linearGradient id="paint14_linear_31553_161644" x1="176" y1="311.805" x2="176" y2="165.104" gradientUnits="userSpaceOnUse">
<stop stop-color="#FFD43E"/>
<stop offset="1" stop-color="#FFE887"/>
</linearGradient>
<linearGradient id="paint15_linear_31553_161644" x1="176" y1="311.805" x2="176" y2="165.104" gradientUnits="userSpaceOnUse">
<stop stop-color="#FFD43E"/>
<stop offset="1" stop-color="#FFE887"/>
</linearGradient>
<linearGradient id="paint16_linear_31553_161644" x1="176" y1="311.805" x2="176" y2="165.104" gradientUnits="userSpaceOnUse">
<stop stop-color="#FFD43E"/>
<stop offset="1" stop-color="#FFE887"/>
</linearGradient>
<linearGradient id="paint17_linear_31553_161644" x1="176" y1="311.805" x2="176" y2="165.104" gradientUnits="userSpaceOnUse">
<stop stop-color="#FFD43E"/>
<stop offset="1" stop-color="#FFE887"/>
</linearGradient>
<linearGradient id="paint18_linear_31553_161644" x1="176" y1="311.805" x2="176" y2="165.104" gradientUnits="userSpaceOnUse">
<stop stop-color="#FFD43E"/>
<stop offset="1" stop-color="#FFE887"/>
</linearGradient>
<linearGradient id="paint19_linear_31553_161644" x1="176" y1="311.805" x2="176" y2="165.104" gradientUnits="userSpaceOnUse">
<stop stop-color="#FFD43E"/>
<stop offset="1" stop-color="#FFE887"/>
</linearGradient>
<linearGradient id="paint20_linear_31553_161644" x1="71.7041" y1="379.06" x2="127.365" y2="379.06" gradientUnits="userSpaceOnUse">
<stop offset="0.0104167" stop-color="#929AA5" stop-opacity="0.37"/>
<stop offset="0.848958" stop-color="#929AA5" stop-opacity="0.26"/>
</linearGradient>
<linearGradient id="paint21_linear_31553_161644" x1="99.5347" y1="353.571" x2="99.5347" y2="392.899" gradientUnits="userSpaceOnUse">
<stop stop-color="#929AA5"/>
<stop offset="1" stop-color="#76808F"/>
</linearGradient>
</defs>
</svg>
