<svg class="robot-icon" width="16" height="16" viewBox="0 0 20 20" xmlns="http://www.w3.org/2000/svg" pointer-events="none"><path fill-rule="evenodd" clip-rule="evenodd" d="M2.75 6.57808V1.625H4.25V5.17814C5.6546 4.1313 7.52573 3.375 10 3.375C12.4743 3.375 14.3454 4.1313 15.75 5.17814V1.625H17.25V6.57808C18.4535 7.96715 19.1129 9.48854 19.4366 10.4317C19.6885 11.1655 19.75 11.9172 19.75 12.6152V17.625V18.375H19H1H0.25V17.625V12.6152C0.25 11.9172 0.311526 11.1655 0.563354 10.4317C0.887065 9.48854 1.54648 7.96715 2.75 6.57808ZM4.5 11.875C4.5 11.0466 5.17157 10.375 6 10.375C6.82843 10.375 7.5 11.0466 7.5 11.875C7.5 12.7034 6.82843 13.375 6 13.375C5.17157 13.375 4.5 12.7034 4.5 11.875ZM6 8.875C4.34315 8.875 3 10.2181 3 11.875C3 13.5319 4.34315 14.875 6 14.875C7.65685 14.875 9 13.5319 9 11.875C9 10.2181 7.65685 8.875 6 8.875ZM14 10.375C13.1716 10.375 12.5 11.0466 12.5 11.875C12.5 12.7034 13.1716 13.375 14 13.375C14.8284 13.375 15.5 12.7034 15.5 11.875C15.5 11.0466 14.8284 10.375 14 10.375ZM11 11.875C11 10.2181 12.3431 8.875 14 8.875C15.6569 8.875 17 10.2181 17 11.875C17 13.5319 15.6569 14.875 14 14.875C12.3431 14.875 11 13.5319 11 11.875ZM1.98212 10.9187C2.64733 8.98045 4.67527 4.875 10 4.875C15.3247 4.875 17.3527 8.98045 18.0179 10.9187C18.1936 11.4306 18.25 11.9962 18.25 12.6152V16.875H1.75V12.6152C1.75 11.9962 1.80641 11.4306 1.98212 10.9187Z"></path></svg>