<svg class="bn-svg h-[120px] w-[120px] mb-4" viewBox="0 0 96 96" xmlns="http://www.w3.org/2000/svg"><path opacity="0.5" d="M48.001 20c-8.837 0-16 7.163-16 16a15.95 15.95 0 004.686 11.314L48.001 36V20z" fill="#929AA5"></path><path opacity="0.15" fill-rule="evenodd" clip-rule="evenodd" d="M12 8h72v56L48 88 12 64V8zm36.001 44c8.837 0 16-7.163 16-16s-7.164-16-16-16c-8.837 0-16 7.163-16 16s7.163 16 16 16z" fill="#929AA5"></path><path d="M26 60h12v4H26v-4z" fill="#F0B90B"></path><path opacity="0.5" d="M42 60h12v4H42v-4zM58 60h12v4H58v-4z" fill="#929AA5"></path></svg>