<svg class="bn-svg w-24 h-24" viewBox="0 0 96 96" xmlns="http://www.w3.org/2000/svg"><path opacity="0.15" fill-rule="evenodd" clip-rule="evenodd" d="M21.999 52.002c-6.628 0-12 5.372-12 12V80h56V64c0-6.627-5.373-12-12-12h-8l-8 8-8-8h-8z" fill="#929AA5"></path><path opacity="0.5" d="M51.999 30c0 7.733-6.268 14-14 14s-14-6.267-14-14c0-7.731 6.268-14 14-14s14 6.269 14 14z" fill="#929AA5"></path><path fill-rule="evenodd" clip-rule="evenodd" d="M79.998 44a6 6 0 11-12 0 6 6 0 0112 0zm6 0c0 5.592-3.824 10.29-9 11.622V62h6v6h-6v6h6v6h-12V55.622c-5.175-1.332-9-6.03-9-11.622 0-6.627 5.373-12 12-12 6.628 0 12 5.373 12 12z" fill="#F0B90B"></path><path opacity="0.5" fill-rule="evenodd" clip-rule="evenodd" d="M45.998 80V52.002l-8 8-8-8V80h16z" fill="#929AA5"></path></svg>