
<svg width="16" height="16" viewBox="0 0 16 16" fill="none" xmlns="http://www.w3.org/2000/svg">
<path d="M14.5925 9.40609L11.3529 9.40609L12.6864 10.7396L12.9315 10.988L13.2591 11.3123L14.5925 12.6458L14.5925 9.40609Z" fill="#76808F"/>
<path fill-rule="evenodd" clip-rule="evenodd" d="M14.4441 9.40625C13.7988 12.4132 11.1256 14.6673 7.92587 14.6673C4.72618 14.6673 2.05297 12.4132 1.40765 9.40625H2.77971C3.39652 11.6698 5.46685 13.334 7.92587 13.334C10.3849 13.334 12.4552 11.6698 13.072 9.40625H14.4441Z" fill="#76808F"/>
<path d="M1.40747 6.59477L4.64714 6.59477L3.31365 5.26128L3.06848 5.01285L2.74095 4.68858L1.40747 3.3551L1.40747 6.59477Z" fill="#76808F"/>
<path fill-rule="evenodd" clip-rule="evenodd" d="M1.55591 6.5946C2.20122 3.58769 4.87443 1.33354 8.07413 1.33354C11.2738 1.33354 13.947 3.58769 14.5923 6.5946L13.2203 6.5946C12.6035 4.33106 10.5332 2.66687 8.07413 2.66687C5.6151 2.66687 3.54477 4.33106 2.92796 6.5946L1.55591 6.5946Z" fill="#76808F"/>
<path fill-rule="evenodd" clip-rule="evenodd" d="M8.00008 4.74996C9.77213 4.74996 11.2087 6.18649 11.2087 7.95854C11.2087 9.73059 9.77213 11.1671 8.00008 11.1671C6.22803 11.1671 4.7915 9.73059 4.7915 7.95854C4.7915 6.18649 6.22803 4.74996 8.00008 4.74996ZM8.00008 9.29544L6.66317 7.95854L8.00008 6.62163L9.33699 7.95854L8.00008 9.29544Z" fill="url(#paint0_linear_6685_30538)"/>
<defs>
<linearGradient id="paint0_linear_6685_30538" x1="8.00008" y1="11.1671" x2="8.00008" y2="4.74996" gradientUnits="userSpaceOnUse">
<stop stop-color="#F0B90B"/>
<stop offset="1" stop-color="#F8D33A"/>
</linearGradient>
</defs>
</svg>
