
<svg width="20" height="20" viewBox="0 0 20 20" fill="none" xmlns="http://www.w3.org/2000/svg">
<circle cx="10" cy="10" r="10" fill="#0B0E11"/>
<path d="M7.19497 8.84747L10.0001 6.04239L12.8067 8.84895L14.4389 7.21667L10.0001 2.77783L5.56272 7.21522L7.19497 8.84747ZM4.41014 8.36769L6.04236 9.99991L4.41005 11.6322L2.77783 10L4.41014 8.36769ZM7.19497 11.1526L10.0001 13.9576L12.8066 11.1512L14.4398 12.7826L14.4389 12.7834L10.0001 17.2223L5.56266 12.7849L5.56038 12.7826L7.19497 11.1526ZM17.2224 10.0002L15.5902 11.6324L13.958 10.0002L15.5902 8.36798L17.2224 10.0002Z" fill="#F0B90B"/>
<path d="M11.6556 9.99924H11.6564L10 8.34289L8.34292 10L8.34517 10.0023L10 11.6572L11.6571 10L11.6556 9.99924Z" fill="#F0B90B"/>
</svg>
