<svg xmlns="http://www.w3.org/2000/svg" viewBox="0 0 160 108" fill="none" class="css-1hkjzhp"><path opacity="0.5" fill-rule="evenodd" clip-rule="evenodd" d="M8 0C3.58172 0 0 3.58172 0 8V100C0 104.418 3.58172 108 8 108H148C152.418 108 156 104.418 156 100V8C156 3.58172 152.418 0 148 0H8ZM91 38H134V62H91V58H12V42H91V38ZM12 84H30V96H12V84ZM54 84H36V96H54V84Z" fill="#929AA5"></path><rect opacity="0.5" y="12" width="156" height="18" fill="#929AA5"></rect><path d="M124.274 45.7913H119.391V43.6334H127.789V45.5297L124.646 48.2924C126.351 48.554 127.984 49.3714 127.984 51.5129C127.984 53.6871 126.28 55.2728 123.51 55.2728C121.273 55.2728 119.729 54.4554 118.664 53.2948L120.545 51.6437C121.398 52.5264 122.285 53.0168 123.546 53.0168C124.575 53.0168 125.303 52.4774 125.303 51.611C125.303 50.6628 124.433 50.1397 122.871 50.1397H121.735L121.309 48.5377L124.274 45.7913Z" fill="#929AA5"></path><path d="M112.414 45.7259C111.455 45.7259 110.798 46.2163 109.875 47.2626L107.958 45.8403C109.183 44.3037 110.372 43.47 112.591 43.47C115.237 43.47 116.87 44.8758 116.87 47.0174C116.87 48.93 115.805 49.8945 113.603 51.4639L111.579 52.9024H116.994V55.0766H107.798V53.0823L111.934 49.9599C113.479 48.7829 114.083 48.1617 114.083 47.2135C114.083 46.249 113.39 45.7259 112.414 45.7259Z" fill="#929AA5"></path><path d="M99.8643 44.5325L103.433 43.5516H105.297V55.0766H102.598V46.1018L100.432 46.5923L99.8643 44.5325Z" fill="#929AA5"></path><g opacity="0.2"><rect opacity="0.5" x="12" y="84" width="18" height="12" fill="#929AA5"></rect><rect opacity="0.5" x="36" y="84" width="18" height="12" fill="#929AA5"></rect></g><path fill-rule="evenodd" clip-rule="evenodd" d="M138.66 73.5617C133.312 77.9384 126.475 80.5642 119.025 80.5642C101.89 80.5642 88 66.6739 88 49.5393C88 32.4046 101.89 18.5143 119.025 18.5143C136.16 18.5143 150.05 32.4046 150.05 49.5393C150.05 56.9892 147.424 63.8258 143.047 69.1741L160 86.1267L155.613 90.5143L138.66 73.5617ZM143.845 49.5393C143.845 63.247 132.733 74.3592 119.025 74.3592C105.317 74.3592 94.205 63.247 94.205 49.5393C94.205 35.8316 105.317 24.7193 119.025 24.7193C132.733 24.7193 143.845 35.8316 143.845 49.5393Z" fill="#F0B90B"></path></svg>