<svg class="bn-svg h-xl w-xl flex-shrink-0 text-IconNormal" viewBox="0 0 25 24" xmlns="http://www.w3.org/2000/svg"><path fill-rule="evenodd" clip-rule="evenodd" d="M16.206 2.32l-3.75 3.75-3.75-3.75h7.5zM19.456 15v3.997h-14V15h-2v6h18v-6h-2zm-12-6.93h10v8.927h-10V8.07zm5.454 7.326v-.638c.884-.146 1.295-.697 1.295-1.348 0-.677-.444-1.056-1.374-1.268v-1.103c.319.073.531.22.69.399l.605-.545c-.292-.332-.684-.538-1.216-.598v-.624h-.757v.624c-.857.1-1.315.565-1.315 1.262 0 .644.405 1.083 1.402 1.288v1.196a1.583 1.583 0 01-.937-.498l-.598.544c.332.366.777.638 1.448.698v.61h.757zm-1.155-3.866c0-.258.146-.438.485-.504v.983c-.34-.093-.485-.226-.485-.479zm1.534 1.953c0 .252-.146.458-.458.545v-1.05c.378.113.458.313.458.505z" fill="currentColor"></path></svg>