<svg xmlns="http://www.w3.org/2000/svg" viewBox="0 0 96 96" fill="none" class="css-g8tlgj"><path fill="#76808F" d="M36 54h24v30H36z"></path><g filter="url(#corporate-account-warning-dark_svg__filter0_d)"><path d="M47.998 10c-9.941 0-18 8.06-18 18 0 9.942 8.059 18.001 18 18.001 9.94 0 18-8.06 18-18 0-9.942-8.059-18-18-18z" fill="#474D57"></path></g><path d="M36 54h-8c-8.837 0-16 7.163-16 16v14h24V54z" fill="url(#corporate-account-warning-dark_svg__paint0_linear)"></path><path d="M60 84h24V70c0-8.837-7.163-16-16-16h-8v30z" fill="url(#corporate-account-warning-dark_svg__paint1_linear)"></path><g filter="url(#corporate-account-warning-dark_svg__filter1_d)"><path d="M60 54v10L50 54h10z" fill="#474D57"></path></g><g filter="url(#corporate-account-warning-dark_svg__filter2_d)"><path d="M36 54v10l10-10H36z" fill="#474D57"></path></g><path d="M72 48c-8.284 0-15 6.716-15 15 0 8.284 6.716 15 15 15 8.284 0 15-6.716 15-15 0-8.284-6.716-15-15-15z" fill="url(#corporate-account-warning-dark_svg__paint2_linear)"></path><path d="M73.5 72h-3v-3h3v3zM70.5 66V54h3v12h-3z" fill="#14151A"></path><g filter="url(#corporate-account-warning-dark_svg__filter3_d)"><path fill="#474D57" d="M46 54h4v30h-4z"></path></g><defs><filter id="corporate-account-warning-dark_svg__filter0_d" x="19.998" y="0" width="56" height="56.001" filterUnits="userSpaceOnUse" color-interpolation-filters="sRGB"><feFlood flood-opacity="0" result="BackgroundImageFix"></feFlood><feColorMatrix in="SourceAlpha" values="0 0 0 0 0 0 0 0 0 0 0 0 0 0 0 0 0 0 127 0"></feColorMatrix><feOffset></feOffset><feGaussianBlur stdDeviation="5"></feGaussianBlur><feColorMatrix values="0 0 0 0 0 0 0 0 0 0 0 0 0 0 0 0 0 0 0.05 0"></feColorMatrix><feBlend in2="BackgroundImageFix" result="effect1_dropShadow"></feBlend><feBlend in="SourceGraphic" in2="effect1_dropShadow" result="shape"></feBlend></filter><filter id="corporate-account-warning-dark_svg__filter1_d" x="40" y="44" width="30" height="30" filterUnits="userSpaceOnUse" color-interpolation-filters="sRGB"><feFlood flood-opacity="0" result="BackgroundImageFix"></feFlood><feColorMatrix in="SourceAlpha" values="0 0 0 0 0 0 0 0 0 0 0 0 0 0 0 0 0 0 127 0"></feColorMatrix><feOffset></feOffset><feGaussianBlur stdDeviation="5"></feGaussianBlur><feColorMatrix values="0 0 0 0 0 0 0 0 0 0 0 0 0 0 0 0 0 0 0.05 0"></feColorMatrix><feBlend in2="BackgroundImageFix" result="effect1_dropShadow"></feBlend><feBlend in="SourceGraphic" in2="effect1_dropShadow" result="shape"></feBlend></filter><filter id="corporate-account-warning-dark_svg__filter2_d" x="26" y="44" width="30" height="30" filterUnits="userSpaceOnUse" color-interpolation-filters="sRGB"><feFlood flood-opacity="0" result="BackgroundImageFix"></feFlood><feColorMatrix in="SourceAlpha" values="0 0 0 0 0 0 0 0 0 0 0 0 0 0 0 0 0 0 127 0"></feColorMatrix><feOffset></feOffset><feGaussianBlur stdDeviation="5"></feGaussianBlur><feColorMatrix values="0 0 0 0 0 0 0 0 0 0 0 0 0 0 0 0 0 0 0.05 0"></feColorMatrix><feBlend in2="BackgroundImageFix" result="effect1_dropShadow"></feBlend><feBlend in="SourceGraphic" in2="effect1_dropShadow" result="shape"></feBlend></filter><filter id="corporate-account-warning-dark_svg__filter3_d" x="36" y="44" width="24" height="50" filterUnits="userSpaceOnUse" color-interpolation-filters="sRGB"><feFlood flood-opacity="0" result="BackgroundImageFix"></feFlood><feColorMatrix in="SourceAlpha" values="0 0 0 0 0 0 0 0 0 0 0 0 0 0 0 0 0 0 127 0"></feColorMatrix><feOffset></feOffset><feGaussianBlur stdDeviation="5"></feGaussianBlur><feColorMatrix values="0 0 0 0 0 0 0 0 0 0 0 0 0 0 0 0 0 0 0.05 0"></feColorMatrix><feBlend in2="BackgroundImageFix" result="effect1_dropShadow"></feBlend><feBlend in="SourceGraphic" in2="effect1_dropShadow" result="shape"></feBlend></filter><linearGradient id="corporate-account-warning-dark_svg__paint0_linear" x1="48" y1="84" x2="48" y2="54" gradientUnits="userSpaceOnUse"><stop stop-color="#929AA5"></stop><stop offset="1" stop-color="#76808F"></stop></linearGradient><linearGradient id="corporate-account-warning-dark_svg__paint1_linear" x1="48" y1="84" x2="48" y2="54" gradientUnits="userSpaceOnUse"><stop stop-color="#929AA5"></stop><stop offset="1" stop-color="#76808F"></stop></linearGradient><linearGradient id="corporate-account-warning-dark_svg__paint2_linear" x1="57" y1="63" x2="87" y2="63" gradientUnits="userSpaceOnUse"><stop stop-color="#F0B90B"></stop><stop offset="1" stop-color="#F8D33A"></stop></linearGradient></defs></svg>