<svg class="bn-svg SharePoster__Action-Button__Icon" viewBox="0 0 24 24" xmlns="http://www.w3.org/2000/svg"><path d="M9.714 11.994c.575 0 1.044.469 1.044 1.044 0 .576-.469 1.045-1.044 1.045a1.046 1.046 0 01-1.045-1.045c0-.575.47-1.044 1.045-1.044zM12.005 16.022c.682 0 1.64-.16 2.088-.608a.28.28 0 01.384-.01.27.27 0 010 .383c-.714.714-2.067.768-2.472.768-.405 0-1.759-.054-2.472-.757a.27.27 0 010-.384.27.27 0 01.383 0c.448.448 1.407.608 2.089.608zM13.252 13.05c0-.576.468-1.045 1.044-1.045a1.06 1.06 0 011.044 1.044c0 .576-.469 1.044-1.044 1.044a1.046 1.046 0 01-1.044-1.044z" fill="currentColor"></path><path fill-rule="evenodd" clip-rule="evenodd" d="M12.005 2.01c-5.52 0-9.995 4.475-9.995 9.995S6.485 22 12.005 22A9.989 9.989 0 0022 12.005c-.01-5.52-4.475-9.995-9.995-9.995zm5.797 11.327c.021.139.032.288.032.437 0 2.248-2.611 4.06-5.829 4.06-3.218 0-5.829-1.812-5.829-4.06 0-.15.01-.298.032-.437a1.447 1.447 0 01-.863-1.332 1.462 1.462 0 012.472-1.055c1.013-.735 2.408-1.193 3.964-1.236 0-.021.735-3.485.735-3.485 0-.063.043-.127.096-.16a.263.263 0 01.203-.042l2.419.522c.17-.34.522-.586.927-.586a1.04 1.04 0 011.044 1.044 1.04 1.04 0 01-1.044 1.045 1.033 1.033 0 01-1.034-.991l-2.174-.47-.66 3.123c1.534.053 2.909.522 3.9 1.236a1.453 1.453 0 012.472 1.044 1.48 1.48 0 01-.863 1.343z" fill="currentColor"></path></svg>