<svg class="bn-svg bn-modal-confirm-icon" viewBox="0 0 96 96" xmlns="http://www.w3.org/2000/svg"><path opacity="0.2" fill-rule="evenodd" clip-rule="evenodd" d="M84 8H12v56l36 24 10.687-7.124A15.926 15.926 0 0156 72c0-8.836 7.163-16 16-16 4.778 0 9.068 2.095 12 5.416V8zM72 56V28L48 52 24 28v28h48z" fill="#AEB4BC"></path><path opacity="0.5" fill-rule="evenodd" clip-rule="evenodd" d="M72 24H24v4l24 24 24-24v-4z" fill="#AEB4BC"></path><path fill-rule="evenodd" clip-rule="evenodd" d="M72.001 56c-8.837 0-16 7.164-16 16 0 8.837 7.163 16 16 16s16-7.163 16-16c0-8.836-7.163-16-16-16zm-2 6v12h4V62h-4zm0 16v4h4v-4h-4z" fill="#F0B90B"></path></svg>