
<svg class="bn-svg h-5 w-5" alt="Data History" viewBox="0 0 25 24" xmlns="http://www.w3.org/2000/svg"><path fill-rule="evenodd" clip-rule="evenodd" d="M12 3C16.9706 3 21 7.02944 21 12C21 16.9706 16.9706 21 12 21C7.02944 21 3 16.9706 3 12C3 7.02944 7.02944 3 12 3ZM14.5 9.5C14.5 10.8807 13.3807 12 12 12C10.6193 12 9.5 10.8807 9.5 9.5C9.5 8.11929 10.6193 7 12 7C13.3807 7 14.5 8.11929 14.5 9.5ZM12 13.9961H8.66662C7.97115 13.9961 7.37518 14.7661 7.12537 15.5161C7.73252 16.4634 9.45831 17.9803 12 18.0023C14.5416 18.0243 16.3061 16.3616 16.8745 15.5161C16.6247 14.7661 16.0288 13.9961 15.3333 13.9961H12Z" fill="currentColor"></path>
</svg>

