<svg class="bn-svg h-5 w-5" alt="Data History" viewBox="0 0 25 24" xmlns="http://www.w3.org/2000/svg"><path fill-rule="evenodd" clip-rule="evenodd" d="M8.213 7.757A6 6 0 1112.455 18v3A9 9 0 106.091 5.636l2.122 2.121zm2.8.402h3v3.257l.181.182 1.06 1.061 1.062 1.06-2.122 2.122-1.06-1.06-1.061-1.061-1.06-1.061v-4.5zm-4.959 2.087V9.007h1.618v1.319l.082.017c.8.17 1.494.477 1.938.89l-1.07 1.175c-.292-.256-.716-.467-1.136-.577l-.13-.034v1.863l.077.02c.76.207 1.392.496 1.832.904.437.405.69.93.69 1.622a2.54 2.54 0 01-.549 1.614c-.374.458-.953.807-1.776.92l-.09.013V20H5.91v-1.32l-.083-.016c-.992-.197-1.884-.577-2.345-1.008l1.094-1.221c.164.156.382.296.617.414.276.138.582.248.865.315l.128.03v-1.966l-.08-.02c-.836-.205-1.5-.52-1.952-.956-.45-.433-.698-.99-.698-1.697 0-.696.236-1.235.66-1.618.425-.384 1.05-.62 1.843-.683l.095-.008zm.055 3.119l.142.058v-1.65l-.127.031c-.266.064-.438.196-.54.353a.846.846 0 00-.13.463.62.62 0 00.154.432c.107.122.272.22.5.313zm1.235 2.07v1.79l.14-.052a.769.769 0 00.427-.355.93.93 0 00.099-.444.968.968 0 00-.126-.499.965.965 0 00-.388-.358l-.152-.082z" fill="currentColor"></path></svg>