<svg class="bn-svg trade-common-icon" viewBox="0 0 25 24" xmlns="http://www.w3.org/2000/svg"><path fill-rule="evenodd" clip-rule="evenodd" d="M4.49 6.377L2.455 4.343V10h5.656L6.656 8.544a6.753 6.753 0 0112.22 1.365h3.105c-.957-4.38-4.858-7.659-9.525-7.659-3.291 0-6.2 1.63-7.967 4.127zm-1.598 7.532H5.98a6.753 6.753 0 0012.31 1.49l-1.473-1.473a4.766 4.766 0 11.007-.017h5.633v5.657l-1.997-1.996a9.739 9.739 0 01-8.003 4.18c-4.732 0-8.676-3.37-9.564-7.84zM12.456 10l2 2-2 2-2-2 2-2z" fill="currentColor"></path></svg>