<svg class="bn-svg w-[16px] h-[16px] mt-[3px]" viewBox="0 0 24 24" xmlns="http://www.w3.org/2000/svg"><path d="M6.379 8.5l-1.94 1.94a6.45 6.45 0 109.122 9.12l1.939-1.939-2.121-2.121-1.94 1.94a3.45 3.45 0 01-4.878-4.88L8.5 10.622 6.379 8.5zM12.56 6.56a3.45 3.45 0 014.88 4.88l-1.94 1.939 2.121 2.121 1.94-1.94a6.45 6.45 0 10-9.122-9.12L8.5 6.378 10.621 8.5l1.94-1.94z" fill="currentColor"></path><path fill-rule="evenodd" clip-rule="evenodd" d="M9.81 16.31l-2.12-2.12 6.5-6.5 2.12 2.12-6.5 6.5z" fill="currentColor"></path></svg>