<svg class="bn-svg !w-[120px] !h-[120px] mb-2" viewBox="0 0 96 96" xmlns="http://www.w3.org/2000/svg"><path opacity="0.5" fill-rule="evenodd" clip-rule="evenodd" d="M14.001 44a6 6 0 1012 0 6 6 0 00-12 0zm-6 0c0 5.592 3.824 10.29 9 11.623V62h-6v6h6v6h-6v6h12V55.623c5.176-1.332 9-6.03 9-11.622 0-6.628-5.373-12-12-12s-12 5.372-12 12z" fill="#AEB4BC"></path><path opacity="0.5" d="M42 30.002c0 7.732 6.269 14 14 14 7.733 0 14-6.269 14-14 0-7.732-6.267-14-14-14-7.731 0-14 6.268-14 14z" fill="#AEB4BC"></path><g opacity="0.2" fill="#AEB4BC"><path d="M72 52.002c4.053 0 7.637 2.01 9.81 5.086A15.96 15.96 0 0076 56a15.96 15.96 0 00-11.999 5.416v-9.415h8zM48.001 52.002h-8c-6.628 0-12 5.373-12 12v16h34.14L48.002 80V52.002z"></path></g><path opacity="0.5" d="M48.001 52.002v27.999h14.14a15.926 15.926 0 01-2.14-8 15.94 15.94 0 014-10.584v-9.415l-8 8-8-8z" fill="#AEB4BC"></path><path fill-rule="evenodd" clip-rule="evenodd" d="M76 56c-8.836 0-16 7.164-16 16 0 8.837 7.164 16 16 16 8.837 0 16-7.163 16-16 0-8.836-7.163-16-16-16zm-2 6v12h4V62h-4zm0 16v4h4v-4h-4z" fill="#F0B90B"></path></svg>