<svg class="bn-svg bn-modal-confirm-icon" viewBox="0 0 96 96" xmlns="http://www.w3.org/2000/svg"><path opacity="0.15" d="M80.669 15.331c-10.935-10.934-28.663-10.934-39.597 0L24.1 32.301H7.13L63.697 88.87V71.9l16.97-16.972c10.935-10.934 10.935-28.662 0-39.597z" fill="#929AA5"></path><path opacity="0.5" d="M24.1 71.9c6.249 6.248 16.38 6.248 22.628 0L24.1 49.272c-6.248 6.249-6.248 16.38 0 22.628zM87.741 11.087L84.913 8.26l-5.708 5.708a28.377 28.377 0 012.829 2.828l5.707-5.708z" fill="#929AA5"></path><path d="M29.758 26.645l39.597 39.597-5.657 5.657-39.597-39.597 5.657-5.657z" fill="#F0B90B"></path></svg>