<svg fill="PrimaryText" class="bn-svg w-6 h-6 flex-shrink-0 text-[--color-PrimaryText]" viewBox="0 0 24 24" xmlns="http://www.w3.org/2000/svg"><path fill-rule="evenodd" clip-rule="evenodd" d="M10.291 4a6.208 6.208 0 016.209 6.209V11h-1.506v-.752A4.747 4.747 0 005.596 9.3l1.96.397a2.748 2.748 0 015.438.55V11h-1.99V9.5h-2V11H3v2h2.5v2.5a6.5 6.5 0 0011.01 4.68l-1.414-1.415A4.5 4.5 0 017.5 15.5V13h1.504v2.502a2.996 2.996 0 105.992 0V13H16.5v2.5c0 .057-.001.113-.003.17h2c.002-.057.003-.113.003-.17V13H21v-2h-2.5v-.791A8.209 8.209 0 0010.29 2v2zm.713 9h1.992v2.502a.996.996 0 01-1.992 0V13z" fill="currentColor"></path></svg>