<svg width="20" height="20" viewBox="0 0 24 24" fill="none" xmlns="http://www.w3.org/2000/svg"><path fill-rule="evenodd" clip-rule="evenodd" d="M16.243 17.243A5.981 5.981 0 0018 13.001a5.981 5.981 0 00-1.757-4.243l2.121-2.121A8.972 8.972 0 0121 13a8.971 8.971 0 01-2.636 6.364l-2.121-2.122z" fill="#F6465D"></path><path fill-rule="evenodd" clip-rule="evenodd" d="M12 7a5.981 5.981 0 00-4.243 1.757L5.636 6.636A8.972 8.972 0 0112 4a8.972 8.972 0 016.364 2.636l-2.122 2.121A5.98 5.98 0 0012 7z" fill="#F0B90B"></path><path fill-rule="evenodd" clip-rule="evenodd" d="M6 13c0 1.658.672 3.157 1.757 4.243l-2.121 2.122A8.972 8.972 0 013 13a8.972 8.972 0 012.636-6.364l2.121 2.121A5.981 5.981 0 006 13.001z" fill="#2ebd85"></path></svg>