<svg xmlns="http://www.w3.org/2000/svg" fill="none" viewBox="0 0 28 28" height="28" width="28">
<path fill="#FAFAFA" d="M0 7C0 3.13401 3.13401 0 7 0H21C24.866 0 28 3.13401 28 7V21C28 24.866 24.866 28 21 28H7C3.13401 28 0 24.866 0 21V7Z"></path>
<path fill="#474D57" d="M4.375 6.51392H23.625V9.72225H4.375V6.51392Z"></path>
<path fill="#474D57" d="M23.625 12.3959H4.375V21.4861H15.2909C15.1466 20.9762 15.0694 20.4381 15.0694 19.882C15.0694 16.6335 17.7029 14 20.9514 14C21.9141 14 22.8228 14.2313 23.625 14.6414V12.3959ZM7.58333 15.0695H12.9306V17.7431H7.58333V15.0695Z" clip-rule="evenodd" fill-rule="evenodd"></path>
<path fill="#F0B90B" d="M20.9516 23.625C23.0188 23.625 24.6946 21.9492 24.6946 19.882C24.6946 17.8147 23.0188 16.1389 20.9516 16.1389C18.8843 16.1389 17.2085 17.8147 17.2085 19.882C17.2085 21.9492 18.8843 23.625 20.9516 23.625ZM20.9516 18.0104L19.08 19.882L20.9516 21.7535L22.8231 19.882L20.9516 18.0104Z" clip-rule="evenodd" fill-rule="evenodd"></path>
</svg>
