<svg class="bn-svg theme-icon hover-color" viewBox="0 0 24 24" xmlns="http://www.w3.org/2000/svg"><path fill-rule="evenodd" clip-rule="evenodd" d="M13.5 3h-3v3h3V3zm0 15h-3v3h3v-3zm-6.803-2.818l2.121 2.121-2.121 2.122-2.122-2.122 2.122-2.121zm12.728-8.485l-2.122-2.122-2.12 2.122 2.12 2.121 2.122-2.121zM15.5 12a3.5 3.5 0 11-7 0 3.5 3.5 0 017 0zM6.697 8.818l2.121-2.121-2.121-2.122-2.122 2.122 2.122 2.121zM6 10.5v3H3v-3h3zm15 0v3h-3v-3h3zm-1.576 6.803l-2.12 2.121-2.122-2.12 2.121-2.122 2.121 2.121z" fill="currentColor"></path></svg>