
<svg width="16" height="16" viewBox="0 0 97 96" fill="none" xmlns="http://www.w3.org/2000/svg">
<g clip-path="url(#clip0_611_13296)">
<path d="M48.5 96C75.0097 96 96.5 74.5097 96.5 48C96.5 21.4903 75.0097 0 48.5 0C21.9903 0 0.5 21.4903 0.5 48C0.5 74.5097 21.9903 96 48.5 96Z" fill="#D80027"/>
<path d="M46.5339 39.2222L50.4723 44.6494L56.8505 42.5812L52.9059 48.0037L56.8437 53.4307L50.4678 51.3547L46.5234 56.7772L46.5275 50.072L40.1514 47.996L46.5297 45.9279L46.5339 39.2222Z" fill="#F0F0F0"/>
<path d="M35.786 61.5652C28.2942 61.5652 22.2207 55.4917 22.2207 48C22.2207 40.5082 28.2942 34.4347 35.786 34.4347C38.1219 34.4347 40.3197 35.0255 42.2386 36.0652C39.2283 33.1211 35.1114 31.3042 30.5686 31.3042C21.3477 31.3042 13.873 38.7791 13.873 47.9998C13.873 57.2204 21.3479 64.6953 30.5686 64.6953C35.1117 64.6953 39.2285 62.8783 42.2386 59.9343C40.3197 60.9744 38.1219 61.5652 35.786 61.5652V61.5652Z" fill="#F0F0F0"/>
</g>
<defs>
<clipPath id="clip0_611_13296">
<rect width="96" height="96" fill="white" transform="translate(0.5)"/>
</clipPath>
</defs>
</svg>
