<svg size="96" class="bn-svg bn-modal-confirm-icon" viewBox="0 0 97 96" xmlns="http://www.w3.org/2000/svg"><path opacity="0.25" fill-rule="evenodd" clip-rule="evenodd" d="M48.11 88c22.09 0 40-17.908 40-40 0-22.09-17.91-40-40-40-22.092 0-40 17.91-40 40 0 22.092 17.908 40 40 40zm-3-36V32h6v20h-6zm0 12v-6h6v6h-6z" fill="#F0B90B"></path><path fill-rule="evenodd" clip-rule="evenodd" d="M77.11 48c0 16.017-12.985 29-29 29-16.017 0-29-12.983-29-29 0-16.015 12.983-29 29-29 16.015 0 29 12.985 29 29zm-26-15v19h-6V33h6zm0 31v-6h-6v6h6z" fill="#F0B90B"></path></svg>