<svg class="bn-svg SharePoster__Action-Button__Icon" viewBox="0 0 24 24" xmlns="http://www.w3.org/2000/svg"><path d="M1.999 12c0-5.523 4.477-10 10-10s10 4.477 10 10-4.477 10-10 10a9.952 9.952 0 01-5.26-1.494l-4.027 1.098 1.312-3.57A9.957 9.957 0 012 12zm6.71-5.262a.837.837 0 00-.679-.065.943.943 0 00-.406.26l-.38.382a.278.278 0 00-.054.077.518.518 0 01-.025.045c-.304.409-.482.907-.524 1.414-.04.376-.034.76.033 1.134.077.527.266 1.032.502 1.506.475.924 1.143 1.73 1.848 2.486.073.074.145.15.217.225.17.179.342.358.526.525.278.268.57.522.87.765l.19.143h.001c.209.158.418.316.64.455.19.132.39.247.59.362l.138.078c.178.09.357.18.538.266.063.025.126.052.19.079.137.058.274.117.417.159.112.046.227.079.343.112l.155.046c.062.013.124.028.185.043.106.026.212.052.32.066h.005c.19.03.382.06.575.062.155.016.311.01.463-.02a6.76 6.76 0 01.094-.02c.107-.02.215-.042.317-.081.285-.09.555-.23.795-.407.067-.032.119-.085.17-.138.02-.02.04-.042.062-.061a4.21 4.21 0 01.13-.127c.126-.12.253-.239.332-.395.052-.117.093-.24.097-.37v-.038a.866.866 0 00-.248-.585l-.921-.922-.576-.576c-.022-.02-.043-.042-.064-.064-.098-.099-.197-.2-.327-.255a.834.834 0 00-.647-.03.9.9 0 00-.358.229c-.274.272-.546.545-.82.819a11.593 11.593 0 01-.848-.492 7.134 7.134 0 01-1.281-1.005 7.226 7.226 0 01-1.108-1.381l-.025-.04c-.08-.126-.16-.252-.231-.383l-.085-.149a3.45 3.45 0 01-.152-.281l.449-.45.284-.284a1.85 1.85 0 00.21-.24.888.888 0 00.15-.508.836.836 0 00-.248-.586l-.755-.755-.002-.001-.756-.757-.055-.055a1.18 1.18 0 00-.26-.217z" fill="currentColor"></path><path d="M1.999 12c0-5.523 4.477-10 10-10s10 4.477 10 10-4.477 10-10 10a9.952 9.952 0 01-5.26-1.494l-4.027 1.098 1.312-3.57A9.957 9.957 0 012 12zm6.71-5.262a.837.837 0 00-.679-.065.943.943 0 00-.406.26l-.38.382a.278.278 0 00-.054.077.518.518 0 01-.025.045c-.304.409-.482.907-.524 1.414-.04.376-.034.76.033 1.134.077.527.266 1.032.502 1.506.475.924 1.143 1.73 1.848 2.486.073.074.145.15.217.225h0c.17.179.342.358.526.525.278.268.57.522.87.765l.19.143h.001c.209.158.418.316.64.455.19.132.39.247.59.362h0l.138.078c.178.09.357.18.538.266.063.025.126.052.19.079.137.058.274.117.417.159.112.046.227.079.343.112h0l.155.046c.062.013.124.028.185.043h0c.106.026.212.052.32.066h.005c.19.03.382.06.575.062.155.016.311.01.463-.02a6.76 6.76 0 01.094-.02h0c.107-.02.215-.042.317-.081.285-.09.555-.23.795-.407.067-.032.119-.085.17-.138.02-.02.04-.042.062-.061a4.21 4.21 0 01.13-.127c.126-.12.253-.239.332-.395.052-.117.093-.24.097-.37v-.038a.866.866 0 00-.248-.585l-.921-.922h0l-.576-.576c-.022-.02-.043-.042-.064-.064-.098-.099-.197-.2-.327-.255a.834.834 0 00-.647-.03.9.9 0 00-.358.229c-.274.272-.546.545-.82.819a11.593 11.593 0 01-.848-.492 7.134 7.134 0 01-1.281-1.005 7.226 7.226 0 01-1.108-1.381l-.025-.04c-.08-.126-.16-.252-.231-.383l-.085-.149h0a3.45 3.45 0 01-.152-.281l.449-.45.284-.284a1.85 1.85 0 00.21-.24.888.888 0 00.15-.508.836.836 0 00-.248-.586l-.755-.755-.002-.001-.756-.757-.055-.055h0a1.18 1.18 0 00-.26-.217z" stroke="#fff"></path></svg>