<svg xmlns="http://www.w3.org/2000/svg" fill="none" viewBox="0 0 148 150" height="150" width="148">
<mask height="150" width="148" y="0" x="0" maskUnits="userSpaceOnUse" style="mask-type:alpha" id="mask0_1849_5673">
<path fill="#373A43" d="M0 23.9105C0 11.2315 10.2784 0.953125 22.9573 0.953125H125.043C137.722 0.953125 148 11.2315 148 23.9105V149.047H0V23.9105Z"></path>
</mask>
<g mask="url(#mask0_1849_5673)">
<g filter="url(#filter0_i_1849_5673)">
<path fill="#373A43" d="M0 23.9105C0 11.2315 10.2784 0.953125 22.9573 0.953125H125.043C137.722 0.953125 148 11.2315 148 23.9105V158.203H0V23.9105Z"></path>
</g>
<g clip-path="url(#clip0_1849_5673)">
<path fill="#1E2329" d="M6.9375 26.1079C6.9375 16.0468 15.0937 7.89062 25.1548 7.89062H122.845C132.906 7.89062 141.062 16.0468 141.062 26.1079V157.047H6.9375V26.1079Z"></path>
<rect fill="#181A20" height="104.062" width="134.125" y="52.9844" x="6.9375" opacity="0.5"></rect>
<rect fill="#1E2329" transform="translate(7.14014 19.4531)" height="15.7558" width="134.282"></rect>
<path fill="#EAECEF" d="M84.5977 22.3477H86.332V24.082H84.5977V25.8164H82.8633V24.082V22.3477H84.5977ZM88.6445 22.3477H90.3789H92.1132H92.1133V25.8164H90.3789V24.082H88.6445V22.3477ZM86.332 31.5976V29.8633H84.5977V28.1288H82.8633V29.8633V31.5975V31.5976H86.332ZM88.6445 29.8633H90.3789V28.1288H92.1133V31.5975H92.1132V31.5976H88.6445V29.8633ZM89.8008 26.1055H85.1758V27.8398H89.8008V26.1055Z" clip-rule="evenodd" fill-rule="evenodd"></path>
<path fill="#EAECEF" d="M113.505 26.9731L113.505 26.9906V29.8638H112.629C111.883 30.9788 110.717 31.7893 109.358 32.0695C109.177 32.473 108.772 32.7542 108.302 32.7542C107.663 32.7542 107.145 32.2365 107.145 31.5979C107.145 30.9594 107.663 30.4417 108.302 30.4417C108.684 30.4417 109.023 30.627 109.233 30.9127C109.963 30.7407 110.616 30.3713 111.134 29.8638H110.614V26.3951H112.015C111.737 24.5941 110.181 23.2153 108.302 23.2153C106.423 23.2153 104.866 24.5941 104.588 26.3951H105.989V29.8638H103.099V26.9732V26.9731C103.099 24.0995 105.428 21.77 108.302 21.77C111.175 21.77 113.505 24.0995 113.505 26.9731Z" clip-rule="evenodd" fill-rule="evenodd"></path>
<path fill="#EAECEF" d="M129.113 21.77C126.878 21.77 125.066 23.5819 125.066 25.8169V29.2856H133.16V29.2854H133.738L133.738 28.1293L133.738 28.1292H133.738L133.16 27.5512V25.8169C133.16 23.5819 131.348 21.77 129.113 21.77ZM125.066 28.1292V28.1293V29.2854H124.488V28.1293V28.1292H124.488L125.066 27.5511V28.1292ZM126.463 30.4417H131.763C131.317 31.4626 130.299 32.1761 129.113 32.1761C127.928 32.1761 126.909 31.4626 126.463 30.4417Z" clip-rule="evenodd" fill-rule="evenodd"></path>
<path fill="#181A20" d="M15.0005 27.313C15.0005 23.8008 17.5856 20.9536 20.7745 20.9536H65.8827C69.0716 20.9536 71.6567 23.8008 71.6567 27.313C71.6567 30.8252 69.0716 33.6724 65.8827 33.6724H20.7745C17.5856 33.6724 15.0005 30.8252 15.0005 27.313Z"></path>
<path fill="#FCD535" d="M65.2371 114.594C83.2988 119.434 101.864 108.715 106.704 90.6536C110.864 75.1271 103.527 59.2286 89.9119 51.9969L86.4049 38.9085L77.1396 48.1738C60.9958 46.6511 45.6337 56.9404 41.2963 73.1278C36.4567 91.1895 47.1753 109.755 65.2371 114.594Z" clip-rule="evenodd" fill-rule="evenodd"></path>
<path fill="#202630" d="M64.3647 66.4741H70.146V72.2554H64.3647V78.0366H58.5835V72.2554V66.4741H64.3647ZM77.8543 66.4741H83.6356H89.4168H89.4169V78.0366H83.6356V72.2554H77.8543V66.4741ZM70.146 97.3069V91.5257H64.3647V85.7447H58.5835V91.5257V97.3069V97.3072H64.3647V97.3069H70.146ZM77.8543 91.5257H83.6356V85.7447H89.4169V97.3072H83.6356V97.3069H77.8543V91.5257ZM81.7085 78.9999H66.2918V84.7812H81.7085V78.9999Z" clip-rule="evenodd" fill-rule="evenodd"></path>
</g>
</g>
<defs>
<filter color-interpolation-filters="sRGB" filterUnits="userSpaceOnUse" height="157.25" width="148" y="0.953125" x="0" id="filter0_i_1849_5673">
<feFlood result="BackgroundImageFix" flood-opacity="0"></feFlood>
<feBlend result="shape" in2="BackgroundImageFix" in="SourceGraphic" mode="normal"></feBlend>
<feColorMatrix result="hardAlpha" values="0 0 0 0 0 0 0 0 0 0 0 0 0 0 0 0 0 0 127 0" type="matrix" in="SourceAlpha"></feColorMatrix>
<feOffset></feOffset>
<feGaussianBlur stdDeviation="1.09321"></feGaussianBlur>
<feComposite k3="1" k2="-1" operator="arithmetic" in2="hardAlpha"></feComposite>
<feColorMatrix values="0 0 0 0 0.0431373 0 0 0 0 0.054902 0 0 0 0 0.0666667 0 0 0 0.5 0" type="matrix"></feColorMatrix>
<feBlend result="effect1_innerShadow_1849_5673" in2="shape" mode="normal"></feBlend>
</filter>
<clipPath id="clip0_1849_5673">
<path fill="white" d="M6.9375 26.1079C6.9375 16.0468 15.0937 7.89062 25.1548 7.89062H122.845C132.906 7.89062 141.062 16.0468 141.062 26.1079V157.047H6.9375V26.1079Z"></path>
</clipPath>
</defs>
</svg>
