<?xml version="1.0"?>

<svg xmlns="http://www.w3.org/2000/svg" xmlns:xlink="http://www.w3.org/1999/xlink" version="1.1" width="1166px" height="1166px" viewBox="0 0 1166 1166">
<defs/>
<rect x="0" y="0" width="1166" height="1166" fill="#ffffff" fill-opacity="0.99212598425197"/>
<rect x="38" y="38" width="33" height="33" fill="#000000"/>
<rect x="71" y="38" width="33" height="33" fill="#000000"/>
<rect x="104" y="38" width="33" height="33" fill="#000000"/>
<rect x="137" y="38" width="33" height="33" fill="#000000"/>
<rect x="170" y="38" width="33" height="33" fill="#000000"/>
<rect x="203" y="38" width="33" height="33" fill="#000000"/>
<rect x="236" y="38" width="33" height="33" fill="#000000"/>
<rect x="302" y="38" width="33" height="33" fill="#000000"/>
<rect x="401" y="38" width="33" height="33" fill="#000000"/>
<rect x="434" y="38" width="33" height="33" fill="#000000"/>
<rect x="467" y="38" width="33" height="33" fill="#000000"/>
<rect x="500" y="38" width="33" height="33" fill="#000000"/>
<rect x="533" y="38" width="33" height="33" fill="#000000"/>
<rect x="566" y="38" width="33" height="33" fill="#000000"/>
<rect x="731" y="38" width="33" height="33" fill="#000000"/>
<rect x="764" y="38" width="33" height="33" fill="#000000"/>
<rect x="797" y="38" width="33" height="33" fill="#000000"/>
<rect x="830" y="38" width="33" height="33" fill="#000000"/>
<rect x="896" y="38" width="33" height="33" fill="#000000"/>
<rect x="929" y="38" width="33" height="33" fill="#000000"/>
<rect x="962" y="38" width="33" height="33" fill="#000000"/>
<rect x="995" y="38" width="33" height="33" fill="#000000"/>
<rect x="1028" y="38" width="33" height="33" fill="#000000"/>
<rect x="1061" y="38" width="33" height="33" fill="#000000"/>
<rect x="1094" y="38" width="33" height="33" fill="#000000"/>
<rect x="38" y="71" width="33" height="33" fill="#000000"/>
<rect x="236" y="71" width="33" height="33" fill="#000000"/>
<rect x="302" y="71" width="33" height="33" fill="#000000"/>
<rect x="335" y="71" width="33" height="33" fill="#000000"/>
<rect x="401" y="71" width="33" height="33" fill="#000000"/>
<rect x="434" y="71" width="33" height="33" fill="#000000"/>
<rect x="566" y="71" width="33" height="33" fill="#000000"/>
<rect x="632" y="71" width="33" height="33" fill="#000000"/>
<rect x="764" y="71" width="33" height="33" fill="#000000"/>
<rect x="896" y="71" width="33" height="33" fill="#000000"/>
<rect x="1094" y="71" width="33" height="33" fill="#000000"/>
<rect x="38" y="104" width="33" height="33" fill="#000000"/>
<rect x="104" y="104" width="33" height="33" fill="#000000"/>
<rect x="137" y="104" width="33" height="33" fill="#000000"/>
<rect x="170" y="104" width="33" height="33" fill="#000000"/>
<rect x="236" y="104" width="33" height="33" fill="#000000"/>
<rect x="302" y="104" width="33" height="33" fill="#000000"/>
<rect x="335" y="104" width="33" height="33" fill="#000000"/>
<rect x="401" y="104" width="33" height="33" fill="#000000"/>
<rect x="434" y="104" width="33" height="33" fill="#000000"/>
<rect x="533" y="104" width="33" height="33" fill="#000000"/>
<rect x="599" y="104" width="33" height="33" fill="#000000"/>
<rect x="698" y="104" width="33" height="33" fill="#000000"/>
<rect x="797" y="104" width="33" height="33" fill="#000000"/>
<rect x="896" y="104" width="33" height="33" fill="#000000"/>
<rect x="962" y="104" width="33" height="33" fill="#000000"/>
<rect x="995" y="104" width="33" height="33" fill="#000000"/>
<rect x="1028" y="104" width="33" height="33" fill="#000000"/>
<rect x="1094" y="104" width="33" height="33" fill="#000000"/>
<rect x="38" y="137" width="33" height="33" fill="#000000"/>
<rect x="104" y="137" width="33" height="33" fill="#000000"/>
<rect x="137" y="137" width="33" height="33" fill="#000000"/>
<rect x="170" y="137" width="33" height="33" fill="#000000"/>
<rect x="236" y="137" width="33" height="33" fill="#000000"/>
<rect x="368" y="137" width="33" height="33" fill="#000000"/>
<rect x="401" y="137" width="33" height="33" fill="#000000"/>
<rect x="500" y="137" width="33" height="33" fill="#000000"/>
<rect x="632" y="137" width="33" height="33" fill="#000000"/>
<rect x="665" y="137" width="33" height="33" fill="#000000"/>
<rect x="731" y="137" width="33" height="33" fill="#000000"/>
<rect x="896" y="137" width="33" height="33" fill="#000000"/>
<rect x="962" y="137" width="33" height="33" fill="#000000"/>
<rect x="995" y="137" width="33" height="33" fill="#000000"/>
<rect x="1028" y="137" width="33" height="33" fill="#000000"/>
<rect x="1094" y="137" width="33" height="33" fill="#000000"/>
<rect x="38" y="170" width="33" height="33" fill="#000000"/>
<rect x="104" y="170" width="33" height="33" fill="#000000"/>
<rect x="137" y="170" width="33" height="33" fill="#000000"/>
<rect x="170" y="170" width="33" height="33" fill="#000000"/>
<rect x="236" y="170" width="33" height="33" fill="#000000"/>
<rect x="500" y="170" width="33" height="33" fill="#000000"/>
<rect x="566" y="170" width="33" height="33" fill="#000000"/>
<rect x="632" y="170" width="33" height="33" fill="#000000"/>
<rect x="665" y="170" width="33" height="33" fill="#000000"/>
<rect x="698" y="170" width="33" height="33" fill="#000000"/>
<rect x="731" y="170" width="33" height="33" fill="#000000"/>
<rect x="764" y="170" width="33" height="33" fill="#000000"/>
<rect x="830" y="170" width="33" height="33" fill="#000000"/>
<rect x="896" y="170" width="33" height="33" fill="#000000"/>
<rect x="962" y="170" width="33" height="33" fill="#000000"/>
<rect x="995" y="170" width="33" height="33" fill="#000000"/>
<rect x="1028" y="170" width="33" height="33" fill="#000000"/>
<rect x="1094" y="170" width="33" height="33" fill="#000000"/>
<rect x="38" y="203" width="33" height="33" fill="#000000"/>
<rect x="236" y="203" width="33" height="33" fill="#000000"/>
<rect x="302" y="203" width="33" height="33" fill="#000000"/>
<rect x="368" y="203" width="33" height="33" fill="#000000"/>
<rect x="401" y="203" width="33" height="33" fill="#000000"/>
<rect x="434" y="203" width="33" height="33" fill="#000000"/>
<rect x="500" y="203" width="33" height="33" fill="#000000"/>
<rect x="566" y="203" width="33" height="33" fill="#000000"/>
<rect x="599" y="203" width="33" height="33" fill="#000000"/>
<rect x="632" y="203" width="33" height="33" fill="#000000"/>
<rect x="665" y="203" width="33" height="33" fill="#000000"/>
<rect x="764" y="203" width="33" height="33" fill="#000000"/>
<rect x="896" y="203" width="33" height="33" fill="#000000"/>
<rect x="1094" y="203" width="33" height="33" fill="#000000"/>
<rect x="38" y="236" width="33" height="33" fill="#000000"/>
<rect x="71" y="236" width="33" height="33" fill="#000000"/>
<rect x="104" y="236" width="33" height="33" fill="#000000"/>
<rect x="137" y="236" width="33" height="33" fill="#000000"/>
<rect x="170" y="236" width="33" height="33" fill="#000000"/>
<rect x="203" y="236" width="33" height="33" fill="#000000"/>
<rect x="236" y="236" width="33" height="33" fill="#000000"/>
<rect x="302" y="236" width="33" height="33" fill="#000000"/>
<rect x="368" y="236" width="33" height="33" fill="#000000"/>
<rect x="434" y="236" width="33" height="33" fill="#000000"/>
<rect x="500" y="236" width="33" height="33" fill="#000000"/>
<rect x="566" y="236" width="33" height="33" fill="#000000"/>
<rect x="632" y="236" width="33" height="33" fill="#000000"/>
<rect x="698" y="236" width="33" height="33" fill="#000000"/>
<rect x="764" y="236" width="33" height="33" fill="#000000"/>
<rect x="830" y="236" width="33" height="33" fill="#000000"/>
<rect x="896" y="236" width="33" height="33" fill="#000000"/>
<rect x="929" y="236" width="33" height="33" fill="#000000"/>
<rect x="962" y="236" width="33" height="33" fill="#000000"/>
<rect x="995" y="236" width="33" height="33" fill="#000000"/>
<rect x="1028" y="236" width="33" height="33" fill="#000000"/>
<rect x="1061" y="236" width="33" height="33" fill="#000000"/>
<rect x="1094" y="236" width="33" height="33" fill="#000000"/>
<rect x="302" y="269" width="33" height="33" fill="#000000"/>
<rect x="335" y="269" width="33" height="33" fill="#000000"/>
<rect x="368" y="269" width="33" height="33" fill="#000000"/>
<rect x="434" y="269" width="33" height="33" fill="#000000"/>
<rect x="467" y="269" width="33" height="33" fill="#000000"/>
<rect x="566" y="269" width="33" height="33" fill="#000000"/>
<rect x="599" y="269" width="33" height="33" fill="#000000"/>
<rect x="665" y="269" width="33" height="33" fill="#000000"/>
<rect x="830" y="269" width="33" height="33" fill="#000000"/>
<rect x="104" y="302" width="33" height="33" fill="#000000"/>
<rect x="137" y="302" width="33" height="33" fill="#000000"/>
<rect x="170" y="302" width="33" height="33" fill="#000000"/>
<rect x="236" y="302" width="33" height="33" fill="#000000"/>
<rect x="302" y="302" width="33" height="33" fill="#000000"/>
<rect x="335" y="302" width="33" height="33" fill="#000000"/>
<rect x="368" y="302" width="33" height="33" fill="#000000"/>
<rect x="500" y="302" width="33" height="33" fill="#000000"/>
<rect x="533" y="302" width="33" height="33" fill="#000000"/>
<rect x="566" y="302" width="33" height="33" fill="#000000"/>
<rect x="599" y="302" width="33" height="33" fill="#000000"/>
<rect x="665" y="302" width="33" height="33" fill="#000000"/>
<rect x="698" y="302" width="33" height="33" fill="#000000"/>
<rect x="731" y="302" width="33" height="33" fill="#000000"/>
<rect x="764" y="302" width="33" height="33" fill="#000000"/>
<rect x="863" y="302" width="33" height="33" fill="#000000"/>
<rect x="896" y="302" width="33" height="33" fill="#000000"/>
<rect x="929" y="302" width="33" height="33" fill="#000000"/>
<rect x="1028" y="302" width="33" height="33" fill="#000000"/>
<rect x="1061" y="302" width="33" height="33" fill="#000000"/>
<rect x="1094" y="302" width="33" height="33" fill="#000000"/>
<rect x="71" y="335" width="33" height="33" fill="#000000"/>
<rect x="137" y="335" width="33" height="33" fill="#000000"/>
<rect x="170" y="335" width="33" height="33" fill="#000000"/>
<rect x="203" y="335" width="33" height="33" fill="#000000"/>
<rect x="302" y="335" width="33" height="33" fill="#000000"/>
<rect x="335" y="335" width="33" height="33" fill="#000000"/>
<rect x="500" y="335" width="33" height="33" fill="#000000"/>
<rect x="665" y="335" width="33" height="33" fill="#000000"/>
<rect x="764" y="335" width="33" height="33" fill="#000000"/>
<rect x="797" y="335" width="33" height="33" fill="#000000"/>
<rect x="995" y="335" width="33" height="33" fill="#000000"/>
<rect x="1028" y="335" width="33" height="33" fill="#000000"/>
<rect x="1061" y="335" width="33" height="33" fill="#000000"/>
<rect x="1094" y="335" width="33" height="33" fill="#000000"/>
<rect x="104" y="368" width="33" height="33" fill="#000000"/>
<rect x="236" y="368" width="33" height="33" fill="#000000"/>
<rect x="269" y="368" width="33" height="33" fill="#000000"/>
<rect x="467" y="368" width="33" height="33" fill="#000000"/>
<rect x="566" y="368" width="33" height="33" fill="#000000"/>
<rect x="632" y="368" width="33" height="33" fill="#000000"/>
<rect x="764" y="368" width="33" height="33" fill="#000000"/>
<rect x="797" y="368" width="33" height="33" fill="#000000"/>
<rect x="830" y="368" width="33" height="33" fill="#000000"/>
<rect x="863" y="368" width="33" height="33" fill="#000000"/>
<rect x="962" y="368" width="33" height="33" fill="#000000"/>
<rect x="1061" y="368" width="33" height="33" fill="#000000"/>
<rect x="1094" y="368" width="33" height="33" fill="#000000"/>
<rect x="434" y="401" width="33" height="33" fill="#000000"/>
<rect x="533" y="401" width="33" height="33" fill="#000000"/>
<rect x="599" y="401" width="33" height="33" fill="#000000"/>
<rect x="665" y="401" width="33" height="33" fill="#000000"/>
<rect x="698" y="401" width="33" height="33" fill="#000000"/>
<rect x="797" y="401" width="33" height="33" fill="#000000"/>
<rect x="863" y="401" width="33" height="33" fill="#000000"/>
<rect x="896" y="401" width="33" height="33" fill="#000000"/>
<rect x="995" y="401" width="33" height="33" fill="#000000"/>
<rect x="1094" y="401" width="33" height="33" fill="#000000"/>
<rect x="38" y="434" width="33" height="33" fill="#000000"/>
<rect x="104" y="434" width="33" height="33" fill="#000000"/>
<rect x="236" y="434" width="33" height="33" fill="#000000"/>
<rect x="302" y="434" width="33" height="33" fill="#000000"/>
<rect x="401" y="434" width="33" height="33" fill="#000000"/>
<rect x="467" y="434" width="33" height="33" fill="#000000"/>
<rect x="566" y="434" width="33" height="33" fill="#000000"/>
<rect x="599" y="434" width="33" height="33" fill="#000000"/>
<rect x="698" y="434" width="33" height="33" fill="#000000"/>
<rect x="731" y="434" width="33" height="33" fill="#000000"/>
<rect x="764" y="434" width="33" height="33" fill="#000000"/>
<rect x="830" y="434" width="33" height="33" fill="#000000"/>
<rect x="863" y="434" width="33" height="33" fill="#000000"/>
<rect x="929" y="434" width="33" height="33" fill="#000000"/>
<rect x="104" y="467" width="33" height="33" fill="#000000"/>
<rect x="137" y="467" width="33" height="33" fill="#000000"/>
<rect x="170" y="467" width="33" height="33" fill="#000000"/>
<rect x="203" y="467" width="33" height="33" fill="#000000"/>
<rect x="269" y="467" width="33" height="33" fill="#000000"/>
<rect x="302" y="467" width="33" height="33" fill="#000000"/>
<rect x="500" y="467" width="33" height="33" fill="#000000"/>
<rect x="533" y="467" width="33" height="33" fill="#000000"/>
<rect x="599" y="467" width="33" height="33" fill="#000000"/>
<rect x="632" y="467" width="33" height="33" fill="#000000"/>
<rect x="698" y="467" width="33" height="33" fill="#000000"/>
<rect x="731" y="467" width="33" height="33" fill="#000000"/>
<rect x="797" y="467" width="33" height="33" fill="#000000"/>
<rect x="830" y="467" width="33" height="33" fill="#000000"/>
<rect x="863" y="467" width="33" height="33" fill="#000000"/>
<rect x="896" y="467" width="33" height="33" fill="#000000"/>
<rect x="962" y="467" width="33" height="33" fill="#000000"/>
<rect x="995" y="467" width="33" height="33" fill="#000000"/>
<rect x="1028" y="467" width="33" height="33" fill="#000000"/>
<rect x="38" y="500" width="33" height="33" fill="#000000"/>
<rect x="71" y="500" width="33" height="33" fill="#000000"/>
<rect x="170" y="500" width="33" height="33" fill="#000000"/>
<rect x="203" y="500" width="33" height="33" fill="#000000"/>
<rect x="236" y="500" width="33" height="33" fill="#000000"/>
<rect x="368" y="500" width="33" height="33" fill="#000000"/>
<rect x="467" y="500" width="33" height="33" fill="#000000"/>
<rect x="599" y="500" width="33" height="33" fill="#000000"/>
<rect x="632" y="500" width="33" height="33" fill="#000000"/>
<rect x="698" y="500" width="33" height="33" fill="#000000"/>
<rect x="830" y="500" width="33" height="33" fill="#000000"/>
<rect x="929" y="500" width="33" height="33" fill="#000000"/>
<rect x="962" y="500" width="33" height="33" fill="#000000"/>
<rect x="995" y="500" width="33" height="33" fill="#000000"/>
<rect x="1061" y="500" width="33" height="33" fill="#000000"/>
<rect x="71" y="533" width="33" height="33" fill="#000000"/>
<rect x="170" y="533" width="33" height="33" fill="#000000"/>
<rect x="302" y="533" width="33" height="33" fill="#000000"/>
<rect x="335" y="533" width="33" height="33" fill="#000000"/>
<rect x="368" y="533" width="33" height="33" fill="#000000"/>
<rect x="401" y="533" width="33" height="33" fill="#000000"/>
<rect x="467" y="533" width="33" height="33" fill="#000000"/>
<rect x="566" y="533" width="33" height="33" fill="#000000"/>
<rect x="632" y="533" width="33" height="33" fill="#000000"/>
<rect x="665" y="533" width="33" height="33" fill="#000000"/>
<rect x="698" y="533" width="33" height="33" fill="#000000"/>
<rect x="764" y="533" width="33" height="33" fill="#000000"/>
<rect x="797" y="533" width="33" height="33" fill="#000000"/>
<rect x="896" y="533" width="33" height="33" fill="#000000"/>
<rect x="962" y="533" width="33" height="33" fill="#000000"/>
<rect x="1028" y="533" width="33" height="33" fill="#000000"/>
<rect x="1094" y="533" width="33" height="33" fill="#000000"/>
<rect x="71" y="566" width="33" height="33" fill="#000000"/>
<rect x="104" y="566" width="33" height="33" fill="#000000"/>
<rect x="170" y="566" width="33" height="33" fill="#000000"/>
<rect x="203" y="566" width="33" height="33" fill="#000000"/>
<rect x="236" y="566" width="33" height="33" fill="#000000"/>
<rect x="269" y="566" width="33" height="33" fill="#000000"/>
<rect x="302" y="566" width="33" height="33" fill="#000000"/>
<rect x="368" y="566" width="33" height="33" fill="#000000"/>
<rect x="467" y="566" width="33" height="33" fill="#000000"/>
<rect x="533" y="566" width="33" height="33" fill="#000000"/>
<rect x="566" y="566" width="33" height="33" fill="#000000"/>
<rect x="599" y="566" width="33" height="33" fill="#000000"/>
<rect x="830" y="566" width="33" height="33" fill="#000000"/>
<rect x="863" y="566" width="33" height="33" fill="#000000"/>
<rect x="896" y="566" width="33" height="33" fill="#000000"/>
<rect x="1094" y="566" width="33" height="33" fill="#000000"/>
<rect x="38" y="599" width="33" height="33" fill="#000000"/>
<rect x="71" y="599" width="33" height="33" fill="#000000"/>
<rect x="335" y="599" width="33" height="33" fill="#000000"/>
<rect x="368" y="599" width="33" height="33" fill="#000000"/>
<rect x="434" y="599" width="33" height="33" fill="#000000"/>
<rect x="500" y="599" width="33" height="33" fill="#000000"/>
<rect x="533" y="599" width="33" height="33" fill="#000000"/>
<rect x="566" y="599" width="33" height="33" fill="#000000"/>
<rect x="599" y="599" width="33" height="33" fill="#000000"/>
<rect x="665" y="599" width="33" height="33" fill="#000000"/>
<rect x="698" y="599" width="33" height="33" fill="#000000"/>
<rect x="731" y="599" width="33" height="33" fill="#000000"/>
<rect x="830" y="599" width="33" height="33" fill="#000000"/>
<rect x="896" y="599" width="33" height="33" fill="#000000"/>
<rect x="1028" y="599" width="33" height="33" fill="#000000"/>
<rect x="71" y="632" width="33" height="33" fill="#000000"/>
<rect x="137" y="632" width="33" height="33" fill="#000000"/>
<rect x="170" y="632" width="33" height="33" fill="#000000"/>
<rect x="236" y="632" width="33" height="33" fill="#000000"/>
<rect x="302" y="632" width="33" height="33" fill="#000000"/>
<rect x="335" y="632" width="33" height="33" fill="#000000"/>
<rect x="368" y="632" width="33" height="33" fill="#000000"/>
<rect x="434" y="632" width="33" height="33" fill="#000000"/>
<rect x="467" y="632" width="33" height="33" fill="#000000"/>
<rect x="500" y="632" width="33" height="33" fill="#000000"/>
<rect x="533" y="632" width="33" height="33" fill="#000000"/>
<rect x="566" y="632" width="33" height="33" fill="#000000"/>
<rect x="599" y="632" width="33" height="33" fill="#000000"/>
<rect x="665" y="632" width="33" height="33" fill="#000000"/>
<rect x="698" y="632" width="33" height="33" fill="#000000"/>
<rect x="764" y="632" width="33" height="33" fill="#000000"/>
<rect x="929" y="632" width="33" height="33" fill="#000000"/>
<rect x="962" y="632" width="33" height="33" fill="#000000"/>
<rect x="995" y="632" width="33" height="33" fill="#000000"/>
<rect x="1028" y="632" width="33" height="33" fill="#000000"/>
<rect x="1061" y="632" width="33" height="33" fill="#000000"/>
<rect x="38" y="665" width="33" height="33" fill="#000000"/>
<rect x="104" y="665" width="33" height="33" fill="#000000"/>
<rect x="170" y="665" width="33" height="33" fill="#000000"/>
<rect x="269" y="665" width="33" height="33" fill="#000000"/>
<rect x="302" y="665" width="33" height="33" fill="#000000"/>
<rect x="368" y="665" width="33" height="33" fill="#000000"/>
<rect x="632" y="665" width="33" height="33" fill="#000000"/>
<rect x="665" y="665" width="33" height="33" fill="#000000"/>
<rect x="797" y="665" width="33" height="33" fill="#000000"/>
<rect x="863" y="665" width="33" height="33" fill="#000000"/>
<rect x="1061" y="665" width="33" height="33" fill="#000000"/>
<rect x="1094" y="665" width="33" height="33" fill="#000000"/>
<rect x="71" y="698" width="33" height="33" fill="#000000"/>
<rect x="104" y="698" width="33" height="33" fill="#000000"/>
<rect x="137" y="698" width="33" height="33" fill="#000000"/>
<rect x="203" y="698" width="33" height="33" fill="#000000"/>
<rect x="236" y="698" width="33" height="33" fill="#000000"/>
<rect x="335" y="698" width="33" height="33" fill="#000000"/>
<rect x="401" y="698" width="33" height="33" fill="#000000"/>
<rect x="467" y="698" width="33" height="33" fill="#000000"/>
<rect x="500" y="698" width="33" height="33" fill="#000000"/>
<rect x="599" y="698" width="33" height="33" fill="#000000"/>
<rect x="665" y="698" width="33" height="33" fill="#000000"/>
<rect x="764" y="698" width="33" height="33" fill="#000000"/>
<rect x="830" y="698" width="33" height="33" fill="#000000"/>
<rect x="962" y="698" width="33" height="33" fill="#000000"/>
<rect x="1061" y="698" width="33" height="33" fill="#000000"/>
<rect x="38" y="731" width="33" height="33" fill="#000000"/>
<rect x="71" y="731" width="33" height="33" fill="#000000"/>
<rect x="104" y="731" width="33" height="33" fill="#000000"/>
<rect x="170" y="731" width="33" height="33" fill="#000000"/>
<rect x="302" y="731" width="33" height="33" fill="#000000"/>
<rect x="368" y="731" width="33" height="33" fill="#000000"/>
<rect x="401" y="731" width="33" height="33" fill="#000000"/>
<rect x="434" y="731" width="33" height="33" fill="#000000"/>
<rect x="467" y="731" width="33" height="33" fill="#000000"/>
<rect x="599" y="731" width="33" height="33" fill="#000000"/>
<rect x="665" y="731" width="33" height="33" fill="#000000"/>
<rect x="731" y="731" width="33" height="33" fill="#000000"/>
<rect x="863" y="731" width="33" height="33" fill="#000000"/>
<rect x="995" y="731" width="33" height="33" fill="#000000"/>
<rect x="1028" y="731" width="33" height="33" fill="#000000"/>
<rect x="1061" y="731" width="33" height="33" fill="#000000"/>
<rect x="38" y="764" width="33" height="33" fill="#000000"/>
<rect x="137" y="764" width="33" height="33" fill="#000000"/>
<rect x="236" y="764" width="33" height="33" fill="#000000"/>
<rect x="269" y="764" width="33" height="33" fill="#000000"/>
<rect x="335" y="764" width="33" height="33" fill="#000000"/>
<rect x="368" y="764" width="33" height="33" fill="#000000"/>
<rect x="401" y="764" width="33" height="33" fill="#000000"/>
<rect x="533" y="764" width="33" height="33" fill="#000000"/>
<rect x="566" y="764" width="33" height="33" fill="#000000"/>
<rect x="599" y="764" width="33" height="33" fill="#000000"/>
<rect x="632" y="764" width="33" height="33" fill="#000000"/>
<rect x="698" y="764" width="33" height="33" fill="#000000"/>
<rect x="797" y="764" width="33" height="33" fill="#000000"/>
<rect x="830" y="764" width="33" height="33" fill="#000000"/>
<rect x="863" y="764" width="33" height="33" fill="#000000"/>
<rect x="962" y="764" width="33" height="33" fill="#000000"/>
<rect x="995" y="764" width="33" height="33" fill="#000000"/>
<rect x="38" y="797" width="33" height="33" fill="#000000"/>
<rect x="170" y="797" width="33" height="33" fill="#000000"/>
<rect x="335" y="797" width="33" height="33" fill="#000000"/>
<rect x="368" y="797" width="33" height="33" fill="#000000"/>
<rect x="401" y="797" width="33" height="33" fill="#000000"/>
<rect x="434" y="797" width="33" height="33" fill="#000000"/>
<rect x="467" y="797" width="33" height="33" fill="#000000"/>
<rect x="533" y="797" width="33" height="33" fill="#000000"/>
<rect x="566" y="797" width="33" height="33" fill="#000000"/>
<rect x="632" y="797" width="33" height="33" fill="#000000"/>
<rect x="665" y="797" width="33" height="33" fill="#000000"/>
<rect x="698" y="797" width="33" height="33" fill="#000000"/>
<rect x="797" y="797" width="33" height="33" fill="#000000"/>
<rect x="863" y="797" width="33" height="33" fill="#000000"/>
<rect x="896" y="797" width="33" height="33" fill="#000000"/>
<rect x="995" y="797" width="33" height="33" fill="#000000"/>
<rect x="1028" y="797" width="33" height="33" fill="#000000"/>
<rect x="1094" y="797" width="33" height="33" fill="#000000"/>
<rect x="38" y="830" width="33" height="33" fill="#000000"/>
<rect x="104" y="830" width="33" height="33" fill="#000000"/>
<rect x="137" y="830" width="33" height="33" fill="#000000"/>
<rect x="170" y="830" width="33" height="33" fill="#000000"/>
<rect x="203" y="830" width="33" height="33" fill="#000000"/>
<rect x="236" y="830" width="33" height="33" fill="#000000"/>
<rect x="335" y="830" width="33" height="33" fill="#000000"/>
<rect x="434" y="830" width="33" height="33" fill="#000000"/>
<rect x="500" y="830" width="33" height="33" fill="#000000"/>
<rect x="533" y="830" width="33" height="33" fill="#000000"/>
<rect x="566" y="830" width="33" height="33" fill="#000000"/>
<rect x="599" y="830" width="33" height="33" fill="#000000"/>
<rect x="632" y="830" width="33" height="33" fill="#000000"/>
<rect x="764" y="830" width="33" height="33" fill="#000000"/>
<rect x="797" y="830" width="33" height="33" fill="#000000"/>
<rect x="830" y="830" width="33" height="33" fill="#000000"/>
<rect x="863" y="830" width="33" height="33" fill="#000000"/>
<rect x="896" y="830" width="33" height="33" fill="#000000"/>
<rect x="929" y="830" width="33" height="33" fill="#000000"/>
<rect x="962" y="830" width="33" height="33" fill="#000000"/>
<rect x="995" y="830" width="33" height="33" fill="#000000"/>
<rect x="1061" y="830" width="33" height="33" fill="#000000"/>
<rect x="302" y="863" width="33" height="33" fill="#000000"/>
<rect x="335" y="863" width="33" height="33" fill="#000000"/>
<rect x="368" y="863" width="33" height="33" fill="#000000"/>
<rect x="401" y="863" width="33" height="33" fill="#000000"/>
<rect x="434" y="863" width="33" height="33" fill="#000000"/>
<rect x="500" y="863" width="33" height="33" fill="#000000"/>
<rect x="632" y="863" width="33" height="33" fill="#000000"/>
<rect x="731" y="863" width="33" height="33" fill="#000000"/>
<rect x="764" y="863" width="33" height="33" fill="#000000"/>
<rect x="797" y="863" width="33" height="33" fill="#000000"/>
<rect x="830" y="863" width="33" height="33" fill="#000000"/>
<rect x="962" y="863" width="33" height="33" fill="#000000"/>
<rect x="995" y="863" width="33" height="33" fill="#000000"/>
<rect x="1028" y="863" width="33" height="33" fill="#000000"/>
<rect x="1061" y="863" width="33" height="33" fill="#000000"/>
<rect x="1094" y="863" width="33" height="33" fill="#000000"/>
<rect x="38" y="896" width="33" height="33" fill="#000000"/>
<rect x="71" y="896" width="33" height="33" fill="#000000"/>
<rect x="104" y="896" width="33" height="33" fill="#000000"/>
<rect x="137" y="896" width="33" height="33" fill="#000000"/>
<rect x="170" y="896" width="33" height="33" fill="#000000"/>
<rect x="203" y="896" width="33" height="33" fill="#000000"/>
<rect x="236" y="896" width="33" height="33" fill="#000000"/>
<rect x="368" y="896" width="33" height="33" fill="#000000"/>
<rect x="500" y="896" width="33" height="33" fill="#000000"/>
<rect x="533" y="896" width="33" height="33" fill="#000000"/>
<rect x="665" y="896" width="33" height="33" fill="#000000"/>
<rect x="731" y="896" width="33" height="33" fill="#000000"/>
<rect x="797" y="896" width="33" height="33" fill="#000000"/>
<rect x="830" y="896" width="33" height="33" fill="#000000"/>
<rect x="896" y="896" width="33" height="33" fill="#000000"/>
<rect x="962" y="896" width="33" height="33" fill="#000000"/>
<rect x="1061" y="896" width="33" height="33" fill="#000000"/>
<rect x="1094" y="896" width="33" height="33" fill="#000000"/>
<rect x="38" y="929" width="33" height="33" fill="#000000"/>
<rect x="236" y="929" width="33" height="33" fill="#000000"/>
<rect x="335" y="929" width="33" height="33" fill="#000000"/>
<rect x="434" y="929" width="33" height="33" fill="#000000"/>
<rect x="500" y="929" width="33" height="33" fill="#000000"/>
<rect x="533" y="929" width="33" height="33" fill="#000000"/>
<rect x="566" y="929" width="33" height="33" fill="#000000"/>
<rect x="632" y="929" width="33" height="33" fill="#000000"/>
<rect x="731" y="929" width="33" height="33" fill="#000000"/>
<rect x="764" y="929" width="33" height="33" fill="#000000"/>
<rect x="830" y="929" width="33" height="33" fill="#000000"/>
<rect x="962" y="929" width="33" height="33" fill="#000000"/>
<rect x="1028" y="929" width="33" height="33" fill="#000000"/>
<rect x="1094" y="929" width="33" height="33" fill="#000000"/>
<rect x="38" y="962" width="33" height="33" fill="#000000"/>
<rect x="104" y="962" width="33" height="33" fill="#000000"/>
<rect x="137" y="962" width="33" height="33" fill="#000000"/>
<rect x="170" y="962" width="33" height="33" fill="#000000"/>
<rect x="236" y="962" width="33" height="33" fill="#000000"/>
<rect x="302" y="962" width="33" height="33" fill="#000000"/>
<rect x="335" y="962" width="33" height="33" fill="#000000"/>
<rect x="434" y="962" width="33" height="33" fill="#000000"/>
<rect x="467" y="962" width="33" height="33" fill="#000000"/>
<rect x="500" y="962" width="33" height="33" fill="#000000"/>
<rect x="533" y="962" width="33" height="33" fill="#000000"/>
<rect x="566" y="962" width="33" height="33" fill="#000000"/>
<rect x="599" y="962" width="33" height="33" fill="#000000"/>
<rect x="632" y="962" width="33" height="33" fill="#000000"/>
<rect x="665" y="962" width="33" height="33" fill="#000000"/>
<rect x="731" y="962" width="33" height="33" fill="#000000"/>
<rect x="830" y="962" width="33" height="33" fill="#000000"/>
<rect x="863" y="962" width="33" height="33" fill="#000000"/>
<rect x="896" y="962" width="33" height="33" fill="#000000"/>
<rect x="929" y="962" width="33" height="33" fill="#000000"/>
<rect x="962" y="962" width="33" height="33" fill="#000000"/>
<rect x="995" y="962" width="33" height="33" fill="#000000"/>
<rect x="38" y="995" width="33" height="33" fill="#000000"/>
<rect x="104" y="995" width="33" height="33" fill="#000000"/>
<rect x="137" y="995" width="33" height="33" fill="#000000"/>
<rect x="170" y="995" width="33" height="33" fill="#000000"/>
<rect x="236" y="995" width="33" height="33" fill="#000000"/>
<rect x="302" y="995" width="33" height="33" fill="#000000"/>
<rect x="335" y="995" width="33" height="33" fill="#000000"/>
<rect x="368" y="995" width="33" height="33" fill="#000000"/>
<rect x="401" y="995" width="33" height="33" fill="#000000"/>
<rect x="434" y="995" width="33" height="33" fill="#000000"/>
<rect x="566" y="995" width="33" height="33" fill="#000000"/>
<rect x="599" y="995" width="33" height="33" fill="#000000"/>
<rect x="632" y="995" width="33" height="33" fill="#000000"/>
<rect x="731" y="995" width="33" height="33" fill="#000000"/>
<rect x="764" y="995" width="33" height="33" fill="#000000"/>
<rect x="863" y="995" width="33" height="33" fill="#000000"/>
<rect x="929" y="995" width="33" height="33" fill="#000000"/>
<rect x="1028" y="995" width="33" height="33" fill="#000000"/>
<rect x="1061" y="995" width="33" height="33" fill="#000000"/>
<rect x="38" y="1028" width="33" height="33" fill="#000000"/>
<rect x="104" y="1028" width="33" height="33" fill="#000000"/>
<rect x="137" y="1028" width="33" height="33" fill="#000000"/>
<rect x="170" y="1028" width="33" height="33" fill="#000000"/>
<rect x="236" y="1028" width="33" height="33" fill="#000000"/>
<rect x="302" y="1028" width="33" height="33" fill="#000000"/>
<rect x="401" y="1028" width="33" height="33" fill="#000000"/>
<rect x="434" y="1028" width="33" height="33" fill="#000000"/>
<rect x="533" y="1028" width="33" height="33" fill="#000000"/>
<rect x="599" y="1028" width="33" height="33" fill="#000000"/>
<rect x="665" y="1028" width="33" height="33" fill="#000000"/>
<rect x="698" y="1028" width="33" height="33" fill="#000000"/>
<rect x="731" y="1028" width="33" height="33" fill="#000000"/>
<rect x="764" y="1028" width="33" height="33" fill="#000000"/>
<rect x="797" y="1028" width="33" height="33" fill="#000000"/>
<rect x="830" y="1028" width="33" height="33" fill="#000000"/>
<rect x="929" y="1028" width="33" height="33" fill="#000000"/>
<rect x="962" y="1028" width="33" height="33" fill="#000000"/>
<rect x="1028" y="1028" width="33" height="33" fill="#000000"/>
<rect x="38" y="1061" width="33" height="33" fill="#000000"/>
<rect x="236" y="1061" width="33" height="33" fill="#000000"/>
<rect x="401" y="1061" width="33" height="33" fill="#000000"/>
<rect x="434" y="1061" width="33" height="33" fill="#000000"/>
<rect x="566" y="1061" width="33" height="33" fill="#000000"/>
<rect x="599" y="1061" width="33" height="33" fill="#000000"/>
<rect x="665" y="1061" width="33" height="33" fill="#000000"/>
<rect x="731" y="1061" width="33" height="33" fill="#000000"/>
<rect x="764" y="1061" width="33" height="33" fill="#000000"/>
<rect x="929" y="1061" width="33" height="33" fill="#000000"/>
<rect x="962" y="1061" width="33" height="33" fill="#000000"/>
<rect x="1028" y="1061" width="33" height="33" fill="#000000"/>
<rect x="1061" y="1061" width="33" height="33" fill="#000000"/>
<rect x="1094" y="1061" width="33" height="33" fill="#000000"/>
<rect x="38" y="1094" width="33" height="33" fill="#000000"/>
<rect x="71" y="1094" width="33" height="33" fill="#000000"/>
<rect x="104" y="1094" width="33" height="33" fill="#000000"/>
<rect x="137" y="1094" width="33" height="33" fill="#000000"/>
<rect x="170" y="1094" width="33" height="33" fill="#000000"/>
<rect x="203" y="1094" width="33" height="33" fill="#000000"/>
<rect x="236" y="1094" width="33" height="33" fill="#000000"/>
<rect x="434" y="1094" width="33" height="33" fill="#000000"/>
<rect x="467" y="1094" width="33" height="33" fill="#000000"/>
<rect x="500" y="1094" width="33" height="33" fill="#000000"/>
<rect x="566" y="1094" width="33" height="33" fill="#000000"/>
<rect x="665" y="1094" width="33" height="33" fill="#000000"/>
<rect x="797" y="1094" width="33" height="33" fill="#000000"/>
<rect x="896" y="1094" width="33" height="33" fill="#000000"/>
<rect x="1028" y="1094" width="33" height="33" fill="#000000"/>
<rect x="1061" y="1094" width="33" height="33" fill="#000000"/>
</svg>

